<?xml version="1.0" encoding="UTF-8"?>
<svg id="Layer_1" data-name="Layer 1" xmlns="http://www.w3.org/2000/svg" viewBox="0 0 145.15 142.81">
  <defs>
    <style>
      .cls-1 {
        fill: #fff;
      }

      .cls-2 {
        fill: #053b9f;
      }

      .cls-3 {
        fill: #e0e621;
      }
    </style>
  </defs>
  <g>
    <path class="cls-2" d="M143.22,65.44H2.61c-.76,.47-1.19,.97-1.19,1.5,0,2.49,9.18,4.5,20.51,4.5,1.98,0,3.9-.07,5.71-.18,2.35,2.98,10.3,5.18,19.78,5.18s17.43-2.2,19.78-5.18c1.82,.12,3.73,.18,5.71,.18s3.9-.07,5.71-.18c2.35,2.98,10.3,5.18,19.78,5.18s17.43-2.2,19.78-5.18c1.82,.12,3.73,.18,5.71,.18,11.33,0,20.51-2.01,20.51-4.5,0-.53-.43-1.03-1.19-1.5Z"/>
    <g>
      <path class="cls-1" d="M42.77,67.81h-11.16s1.09,4.96,5.94,4.96c0,0-.41-2.94,5.22-4.96Z"/>
      <path class="cls-1" d="M94.77,67.81h-11.16s1.09,4.96,5.94,4.96c0,0-.41-2.94,5.22-4.96Z"/>
    </g>
  </g>
  <g>
    <path class="cls-2" d="M136.65,76.81h-19.04c-3.05,2.56-10.37,4.37-18.96,4.37s-15.92-1.81-18.96-4.37h-13.06c-3.05,2.56-10.37,4.37-18.96,4.37s-15.92-1.81-18.96-4.37H9.65c-4.69,0-8.5,3.81-8.5,8.5s3.81,8.5,8.5,8.5h127c4.69,0,8.5-3.81,8.5-8.5s-3.81-8.5-8.5-8.5Z"/>
    <g>
      <path class="cls-2" d="M95.76,4.96L57.03,.32C32.63-2.6,10.48,14.81,7.56,39.22h0c-.66,5.48,3.26,10.46,8.74,11.12l107.23,12.84c5.48,.66,10.46-3.26,11.12-8.74h0c2.92-24.4-14.49-46.55-38.9-49.47Zm-59.23,12.8c-1.53,.1-2.87-.14-2.99-.55-.13-.41,1.01-.82,2.53-.93,1.53-.1,2.87,.14,2.99,.55,.13,.41-1.01,.82-2.53,.93Zm6.28-4.68c-1.53,.1-2.87-.14-2.99-.55-.13-.41,1.01-.82,2.53-.93,1.53-.1,2.87,.14,2.99,.55,.13,.41-1.01,.82-2.53,.93Zm7.7,6.25c-1.53,.1-2.87-.14-2.99-.55-.13-.41,1.01-.82,2.53-.93,1.53-.1,2.87,.14,2.99,.55,.13,.41-1.01,.82-2.53,.93Zm5.3-4.62c-1.53,.1-2.87-.14-2.99-.55-.13-.41,1.01-.82,2.53-.93,1.53-.1,2.87,.14,2.99,.55,.13,.41-1.01,.82-2.53,.93Z"/>
      <path class="cls-2" d="M3.86,36.81s-10,15,26,18,80.9,8.43,80.9,8.43c0,0-35.9-2.43-43.9-1.43s-27.68,3.86-33.34,1.43c-5.66-2.43-9.76,.43-21.21,0-11.45-.43-13.86-9.05-10.65-12.74s-6.79-8.69,2.21-13.69Z"/>
    </g>
  </g>
  <g>
    <g>
      <path class="cls-2" d="M46.12,110.81H13.51c-2.94,0-5.32,2.38-5.32,5.32,0,13.08,10.6,23.68,23.68,23.68h62.32c-12.16-14.22-30.68-23.28-48.06-29Z"/>
      <path class="cls-2" d="M113.45,139.23c8.48-1.9,15.24-8.36,17.58-16.66-5.17,5.83-11.82,11.83-17.58,16.66Z"/>
    </g>
    <path class="cls-3" d="M9.19,98.81s70.36,5.03,92.27,44c0,0,51.45-37.71,30.83-44H9.19Z"/>
  </g>
</svg>