<?xml version="1.0" encoding="UTF-8"?>
<svg id="Layer_1" data-name="Layer 1" xmlns="http://www.w3.org/2000/svg" viewBox="0 0 708.63 300">
  <defs>
    <style>
      .cls-1 {
        fill: #fff;
      }

      .cls-2 {
        fill: #e0e621;
      }
    </style>
  </defs>
  <path class="cls-1" d="M380.04,99.84c0,29.09,.13,58.17,.35,87.26-9.18,2.76-13.78,4.14-22.96,6.91-30.8,4.42-25.05-75.04-25.05-88.47s-3.07-94.69,25.09-88.45c7.76,1.72,14.33,6.96,20.79,12.95-.61,20.65-.89,31.02-1.38,51.88-5.7-2.61-11.45-5.39-17.16-5.97-5.33-.54-8.71,8.57-8.72,29.59,0,21.03,3.37,30.14,8.7,29.6,1.75-.18,2.62-.27,4.37-.44-.03-14.07-.03-21.11-.02-35.19,6.39,.13,9.59,.2,15.98,.34Z"/>
  <path class="cls-1" d="M399.57,78.23c-.03,4.23-.04,6.34-.06,10.57,8.95,.6,13.43,.89,22.38,1.49-.08,12.83-.09,19.27-.03,32.11-8.95,.66-13.42,.99-22.37,1.65,.01,4.23,.02,6.34,.04,10.57,9.27-1.07,13.91-1.61,23.18-2.68,.13,16.94,.25,25.39,.59,42.25-16.31,4.91-24.46,7.36-40.77,12.27-.42-52.69-.4-105.36,.05-158.05,16.22,4.65,24.33,6.98,40.54,11.64-.35,16.24-.48,24.38-.63,40.69-9.17-1-13.76-1.5-22.93-2.49Z"/>
  <path class="cls-1" d="M425.55,40.73c7.52,2.16,11.28,3.24,18.8,5.39,3.15,19.63,6.7,39.27,10.78,58.73,.05-22.25,.28-33.33,1.03-55.34,6.66,1.91,9.99,2.87,16.65,4.78-1.19,35.07-1.24,69.96-.14,105.04-7.51,2.26-11.27,3.39-18.78,5.65-4.82-18.4-9-37.1-12.61-55.77-.02,19.77,.26,39.56,.81,59.32-6.65,2-9.98,3-16.63,5-.76-44.29-.73-88.52,.09-132.81Z"/>
  <path class="cls-1" d="M487.43,154.89c-1.07-20.6-1.43-41.41-1.02-62.03-5.12-.39-7.68-.59-12.79-.99,.21-14.89,.43-22.31,1.07-37.04,17.61,5.05,26.42,7.58,44.03,12.64-.84,11-1.13,16.57-1.41,27.77-5.12-.39-7.67-.59-12.79-.99-.46,22.11-.18,33.35,1.14,55.15-7.3,2.2-10.94,3.29-18.24,5.49Z"/>
  <path class="cls-1" d="M559.05,133.34c-15.45,4.65-23.17,6.97-38.62,11.62-1.9-25.61-1.84-51.35,.18-76.95,7.3,2.1,10.95,3.14,18.26,5.24-1.71,17.04-2.09,25.99-1.6,43.45,8.1-.79,12.15-1.19,20.25-1.99,.28,7.56,.61,11.29,1.53,18.63Z"/>
  <path class="cls-1" d="M577.17,97.54c-.1,1.23-.14,1.84-.2,3.08,8.95,.6,13.43,.89,22.38,1.49-.24,2.87-.25,4.37-.09,7.25-8.95,.66-13.42,.99-22.37,1.64,.05,1.24,.08,1.86,.15,3.09,9.27-1.07,13.91-1.61,23.18-2.68,.37,3.71,.74,5.53,1.74,9.02-16.31,4.91-24.46,7.36-40.77,12.27-2.71-20.73-2.66-32.3,.22-52.97,16.22,4.65,24.32,6.98,40.54,11.63-1.03,3.36-1.42,5.1-1.86,8.67-9.17-1-13.76-1.5-22.93-2.49Z"/>
  <path class="cls-2" d="M439.23,222.61c2.99-10.86,2.88-17.63-.45-28.36,10.48-3.01,15.72-4.52,26.19-7.53,11.89-3.42,17.61-.45,18.24,8.45,.38,5.31-1.49,9.4-5.41,11.81,5.03,2.15,8.03,7.45,7.74,13.42-.5,10.39-5.79,13.85-20.17,9.72-3.27-.94-4.91-1.41-8.18-2.35,.22-4.55,.23-6.83-.03-11.36,3.11,.37,4.67,.56,7.78,.93,3.33,.4,4.76-.3,4.83-2.15,.07-1.85-1.29-2.79-4.61-2.96-3.31-.17-4.96-.25-8.27-.42-.16,6.31-.52,9.41-1.68,15.39-6.4-1.84-9.6-2.76-16-4.6Zm25.56-19.36c2.64-.18,3.83-1.12,3.73-2.67-.1-1.55-1.41-2.23-4.05-1.89-3.22,.42-4.82,.63-8.04,1.05,.17,1.61,.24,2.42,.34,4.06,3.21-.22,4.82-.33,8.03-.55Z"/>
  <path class="cls-2" d="M485.4,180.85c6.71-1.93,10.06-2.89,16.77-4.82,1.42,14.14,1.81,21.42,1.73,36.01-.03,5.38,1.48,7.79,4.77,8.11,3.28,.33,4.99-1.95,5.02-7.8,.08-15.83-.3-23.74-1.65-39.15,6.71-1.93,10.06-2.89,16.77-4.82,1.35,19.19,1.69,29.06,1.47,48.64-.24,22.07-9.18,30.93-22.98,26.77-13.8-4.15-20.38-14.14-20.08-29.43,.27-13.56-.16-20.43-1.83-33.51Z"/>
  <path class="cls-2" d="M548.83,199.34c1.51-.09,2.26-.13,3.77-.21,3.91-.22,6.25-2.2,6.18-6.01-.07-3.8-2.47-5.24-6.39-4.75-1.12,.14-1.68,.21-2.79,.34,.32-10.52,.4-15.81,.43-26.42,1.44-.41,2.16-.62,3.6-1.03,15.49-4.45,21.71,7.24,22.04,30.33,.2,14.22-1.9,24.89-7.14,30.36,3.54,15.37,5.19,23.42,8.36,40.21-8.08-2.32-12.12-3.48-20.19-5.8-1.64-12.55-2.52-18.66-4.48-30.55-1.37-.15-2.06-.22-3.43-.37-.2,11.41-.4,17.09-.96,28.37-6.7-1.92-10.05-2.89-16.75-4.81,1.68-27.04,1.57-54.16-.3-81.18,6.71-1.93,10.06-2.89,16.77-4.82,.8,14.43,1.07,21.71,1.27,36.34Z"/>
  <path class="cls-2" d="M622.03,202c.08,24.32-.13,48.64-.57,72.96-8.43-2.42-12.65-3.63-21.08-6.06-22.57-9.48-22.06-41.49-22.12-61.83-.06-20.45,.13-54.14,21.86-62.07,6.98-2.55,13.24-2.08,19.27-.29-.05,17.15-.12,25.71-.37,42.79-5.25-1.25-10.56-2.33-15.8-1.77-4.9,.52-7.86,7.15-7.83,21.22,.03,14.07,3.03,20.68,7.92,21.13,1.61,.15,2.41,.22,4.01,.37,.07-10.41,.08-15.63,.04-26.05,5.87-.16,8.81-.24,14.68-.4Z"/>
  <path class="cls-2" d="M639.8,180.14c.03,4.1,.04,6.16,.06,10.26,8.22-.59,12.34-.89,20.56-1.48,.04,14.81,.05,22.22,.02,37.04-8.22-.53-12.33-.8-20.55-1.34-.01,4.11-.02,6.16-.04,10.26,8.52,.9,12.78,1.36,21.3,2.26-.06,19.67-.12,29.5-.29,49.14-14.97-4.3-22.46-6.45-37.43-10.75,.64-44.78,.59-89.51-.14-134.29,14.9-4.28,22.35-6.42,37.25-10.7,.18,18.87,.25,28.31,.33,47.22-8.43,.95-12.64,1.43-21.07,2.38Z"/>
  <path class="cls-2" d="M679.76,191.89c1.51-.09,2.26-.13,3.77-.21,3.91-.22,6.26-3.64,6.25-10.42,0-6.77-2.37-9.56-6.29-9.08-1.12,.14-1.68,.21-2.79,.34,.54-19.18,.8-28.81,1.3-48.16,1.44-.41,2.16-.62,3.6-1.03,23.43-2.83,21.32,43.56,21.08,56.4-.46,23.82-2.05,42.38-7.24,52.16,3.12,22.7,6.18,45.4,9.2,68.12-8.08-2.32-12.11-3.48-20.19-5.8-2.1-22.11-3.14-32.97-5.26-54.32-1.37-.15-2.06-.22-3.43-.37-.04,20.87-.07,31.3-.17,52.14-6.7-1.92-10.05-2.89-16.75-4.81,.36-52.32,.33-104.63-.08-156.95,6.71-1.93,10.06-2.89,16.77-4.82,.11,22.27,.18,44.54,.23,66.81Z"/>
  <path class="cls-1" d="M289.25,132.17H5.27c-1.53,.95-2.41,1.97-2.41,3.03,0,5.02,18.54,9.09,41.42,9.09,4.01,0,7.87-.13,11.54-.36,4.75,6.02,20.81,10.46,39.95,10.46s35.21-4.44,39.95-10.46c3.67,.23,7.53,.36,11.54,.36s7.87-.13,11.54-.36c4.75,6.02,20.81,10.46,39.95,10.46s35.21-4.44,39.95-10.46c3.67,.23,7.53,.36,11.54,.36,22.87,0,41.42-4.07,41.42-9.09,0-1.06-.88-2.08-2.41-3.03Z"/>
  <g>
    <path class="cls-1" d="M275.98,155.13h-38.45c-6.16,5.17-20.95,8.82-38.3,8.82s-32.14-3.65-38.3-8.82h-26.38c-6.16,5.17-20.95,8.82-38.3,8.82s-32.14-3.65-38.3-8.82H19.5c-9.48,0-17.17,7.69-17.17,17.17s7.69,17.17,17.17,17.17H275.98c9.48,0,17.17-7.69,17.17-17.17s-7.69-17.17-17.17-17.17Z"/>
    <g>
      <path class="cls-1" d="M193.38,10.01L115.18,.65C65.9-5.25,21.16,29.92,15.26,79.2h0c-1.33,11.07,6.58,21.13,17.65,22.45l216.57,25.92c11.07,1.33,21.13-6.58,22.45-17.65h0c5.9-49.28-29.27-94.02-78.55-99.91Zm-119.63,25.85c-3.08,.21-5.79-.29-6.04-1.11-.26-.82,2.03-1.66,5.11-1.87,3.08-.21,5.79,.29,6.04,1.11,.26,.82-2.03,1.66-5.11,1.87Zm12.68-9.46c-3.08,.21-5.79-.29-6.04-1.11-.26-.82,2.03-1.66,5.11-1.87,3.08-.21,5.79,.29,6.04,1.11,.26,.82-2.03,1.66-5.11,1.87Zm15.56,12.63c-3.08,.21-5.79-.29-6.04-1.11-.26-.82,2.03-1.66,5.11-1.87,3.08-.21,5.79,.29,6.04,1.11,.26,.82-2.03,1.66-5.11,1.87Zm10.71-9.33c-3.08,.21-5.79-.29-6.04-1.11-.26-.82,2.03-1.66,5.11-1.87,3.08-.21,5.79,.29,6.04,1.11,.26,.82-2.03,1.66-5.11,1.87Z"/>
      <path class="cls-1" d="M7.8,74.34s-20.2,30.29,52.51,36.35c72.7,6.06,163.38,17.02,163.38,17.02,0,0-72.5-4.91-88.65-2.89-16.16,2.02-55.91,7.79-67.33,2.89-11.43-4.91-19.71,.87-42.83,0-23.12-.87-27.99-18.27-21.52-25.72,6.47-7.46-13.72-17.55,4.45-27.65Z"/>
    </g>
  </g>
  <g>
    <path class="cls-1" d="M93.14,223.79H27.28c-5.93,0-10.75,4.81-10.75,10.75,0,26.41,21.41,47.82,47.82,47.82h125.85c-24.56-28.72-61.97-47.01-97.07-58.57Z"/>
    <path class="cls-1" d="M229.12,281.18c17.13-3.85,30.77-16.87,35.5-33.65-10.43,11.77-23.88,23.89-35.5,33.65Z"/>
  </g>
  <path class="cls-2" d="M18.56,199.56s142.1,10.16,186.34,88.86c0,0,103.9-76.17,62.27-88.86H18.56Z"/>
</svg>