<svg xmlns="http://www.w3.org/2000/svg" xmlns:xlink="http://www.w3.org/1999/xlink" x="0px" y="0px"
	 viewBox="0 0 166.4 146.6" style="enable-background:new 0 0 166.4 146.6;" xml:space="preserve">
<style type="text/css">
	.st0{fill:#214AEE;}
	.st1{fill:#214AEE;}
	.st2{fill:#214AEE;}
	.st3{fill:#214AEE;}
	.st4{fill:#214AEE;}
	.st5{fill:#214AEE;}
	.st6{fill:#214AEE;}
	.st7{fill:#214AEE;}
	.st8{fill:#214AEE;}
	.st9{fill:#214AEE;}

</style>
<g>
	<g>
		<path class="st1" d="M3,0.1l7.7,13.6l7.7-13.6h2.3v20h-2.6V5.4l-6.4,11.4H9.8L3.3,5.4v14.8H0.7v-20H3z"/>
		<path class="st2" d="M44.9,15.2h-9.6l-2,4.9h-2.7l8.2-20h2.8l8.2,20h-2.9L44.9,15.2z M44,12.9l-3.9-9.7l-3.9,9.7H44z"/>
		<path class="st3" d="M74.6,20.1L70.1,13c-0.5,0-0.9,0-1.1,0h-4.9v7.1h-2.6v-20H69c1.7,0,3.1,0.3,4.3,0.8c1.2,0.5,2.1,1.3,2.8,2.2
			c0.6,1,0.9,2.1,0.9,3.4c0,1.4-0.4,2.6-1.1,3.6c-0.7,1-1.8,1.8-3.2,2.2l5,7.6H74.6z M72.9,9.7c1-0.7,1.5-1.7,1.5-3.1
			c0-1.3-0.5-2.4-1.5-3.1c-1-0.7-2.4-1.1-4.1-1.1h-4.7v8.2h4.7C70.5,10.7,71.9,10.4,72.9,9.7z"/>
		<path class="st4" d="M96.9,11.2l-3.6,4v4.9h-2.6v-20h2.6v11.5l10.3-11.5h3.3l-8.2,9.2l8.8,10.8H104L96.9,11.2z"/>
		<path class="st5" d="M135.5,0.1v2.3h-11.6v6.3h10.7v2.3h-10.7v6.7h11.8v2.3h-14.4v-20H135.5z"/>
		<path class="st6" d="M159.2,2.5v17.7h-2.6V2.5h-7.2V0.1h17v2.3H159.2z"/>
	</g>
	<g>
		<g>
			<path class="st7" d="M14.3,69.7c-4.3,2.7-9,4.3-14.3,4.8v-7.8c5.8-0.8,10.6-3.3,14.3-7.3c3.7-4,6-8.9,6.9-14.5H0.8v-7.5h20.5
				v-8.6h9.1v8.6h20.2v7.5H30.3c-0.4,2.7-1,5.3-1.9,7.7l23.4,14.6l-4.3,6.7L24.9,59.5C22.1,63.6,18.6,67,14.3,69.7z M62.3,48.8V30.1
				h9v46.1h-9V56.8H47.4v-8H62.3z"/>
			<path class="st8" d="M124.3,48.7v-9.3H88.1V32h45.1v23.8h-36v9.5h19.5c5.3,0,10-0.3,14.3-0.9c4.3-0.6,7.6-1.4,10.1-2.5v7.3
				c-2.4,1-5.8,1.9-10.2,2.5c-4.4,0.6-9.3,1-14.7,1H88.3v-24H124.3z M155.5,46.4v9.7h10.9v7.6h-10.9v12.5h-9V30.1h9v8.7h10.9v7.6
				H155.5z"/>
		</g>
		<g>
			<path class="st9" d="M107.3,110.6c-3.6-4.2-7.1-8.2-10.6-12.3c6.7-9.3,14.9-16.1,26.9-16.9c14.4-1,27.3,6.7,32.9,19.9
				c8.2,19.3-4.2,41.6-24.9,44.7c-11.7,1.7-21.7-1.8-29.5-10.6C92.5,124.9,83.4,114,74,103.3c-4.3-4.9-9.7-6.7-16-5.4
				c-6.2,1.3-10.4,5.1-12.2,11.1c-3.5,11.1,5.7,22.1,17.2,20.8c4.6-0.5,8.4-2.5,11.4-6c2-2.3,4-4.6,6.1-7c3.6,4.2,7.2,8.3,10.7,12.3
				c-5.7,7.7-12.4,13.9-22.1,16.2c-18.1,4.3-36.4-7.7-39.5-26c-3.1-18.4,9.5-35.6,28-37.8c11-1.3,20.6,2.1,28.1,10.3
				c9.5,10.6,18.7,21.5,28,32.2c7,8.1,19.7,7.8,25.9-0.7c4.1-5.6,4.5-11.7,1-17.7c-3.4-5.9-8.8-8.5-15.7-8.1
				c-4.7,0.3-8.5,2.5-11.5,6C111.4,106,109.4,108.2,107.3,110.6z"/>
		</g>
	</g>
</g>
</svg>
