<?xml version="1.0" encoding="utf-8"?>
<!-- Generator: Adobe Illustrator 24.1.2, SVG Export Plug-In . SVG Version: 6.00 Build 0)  -->
<svg version="1.1" id="Layer_1" xmlns="http://www.w3.org/2000/svg" xmlns:xlink="http://www.w3.org/1999/xlink" x="0px" y="0px"
	 viewBox="0 0 344 344" style="enable-background:new 0 0 344 344;" xml:space="preserve">
<style type="text/css">
	.st0{clip-path:url(#SVGID_2_);}
	.st1{fill:#FFFFFF;}
	.st2{fill-rule:evenodd;clip-rule:evenodd;}
</style>
<g>
	<defs>
		<rect id="SVGID_1_" y="0" width="344" height="344"/>
	</defs>
	<clipPath id="SVGID_2_">
		<use xlink:href="#SVGID_1_"  style="overflow:visible;"/>
	</clipPath>
	<g id="그룹_392" transform="translate(0.195 0.195)" class="st0">
		<path id="패스_588" class="st1" d="M343.8,171.9c0,94.9-77,171.9-171.9,171.9S0,266.8,0,171.9S77,0,171.9,0
			C266.8,0,343.8,77,343.8,171.9L343.8,171.9"/>
		<path id="패스_589" class="st2" d="M86,243.3c-7.8-2.4-14-8.4-16.6-16.1c-7.2-19.8-9.3-102.5,4.5-118.8c4.5-5.5,11-8.9,18.1-9.6
			c37.3-4,152.6-3.4,165.9,1.3c7.8,2.8,13.3,7.9,16.3,15.7c7.9,20.4,8.1,94.8-1,114.5c-2.5,5.1-6.6,9.3-11.7,11.8
			C247.5,249.4,104.3,249.3,86,243.3 M145.3,204.5c22.4-11.6,44.7-23.2,67.2-34.8c-22.6-11.8-44.8-23.4-67.2-35.1V204.5z"/>
	</g>
</g>
</svg>
