<?xml version="1.0" encoding="utf-8"?>
<!-- Generator: Adobe Illustrator 24.1.2, SVG Export Plug-In . SVG Version: 6.00 Build 0)  -->
<svg version="1.1" id="Layer_1" xmlns="http://www.w3.org/2000/svg" xmlns:xlink="http://www.w3.org/1999/xlink" x="0px" y="0px"
	 viewBox="0 0 344 344" style="enable-background:new 0 0 344 344;" xml:space="preserve">
<style type="text/css">
	.st0{clip-path:url(#SVGID_2_);}
	.st1{fill:#FFFFFF;}
</style>
<g>
	<defs>
		<rect id="SVGID_1_" y="0" width="344" height="344"/>
	</defs>
	<clipPath id="SVGID_2_">
		<use xlink:href="#SVGID_1_"  style="overflow:visible;"/>
	</clipPath>
	<g id="그룹_393" transform="translate(0 0.195)" class="st0">
		<path id="패스_590" class="st1" d="M343.8,171.9c0,94.9-77,171.9-171.9,171.9S0,266.8,0,171.9S77,0,171.9,0
			C266.8,0,343.8,77,343.8,171.9L343.8,171.9"/>
		<path id="패스_591" d="M276.1,119.2c-1.4-13.9-6.8-26.3-17.1-36.1c-10.9-10.4-24.2-15-38.8-15.8c-24.9-1.4-84-2.2-104.7,1.2
			c-23.7,3.9-39.3,17.7-45.8,41.1c-5,18-4,101.1-1.1,118.9c4,24.4,18.4,40,42.5,46.2c16.7,4.3,98.8,3.8,117.2,0.8
			c24.4-3.9,40-18.3,46.4-42.3C279.4,214.5,277.8,135.9,276.1,119.2 M256.6,225c-2.8,18.5-15.1,30-33.7,32
			c-17.1,1.9-93.4,2.9-109.2-1.5c-15.2-4.2-23.8-14.7-26.3-29.9c-2.4-14.6-3-87.4,0-106.9c2.8-18.3,15.1-29.8,33.6-31.8
			c18.8-2.1,86.3-2.3,104.2,0.4c18.5,2.8,29.9,15.1,31.9,33.8C258.9,138.4,259.4,206.3,256.6,225 M171.9,117.6
			c-30,0-54.3,24.3-54.3,54.3s24.3,54.3,54.3,54.3c30,0,54.3-24.3,54.3-54.3c0,0,0,0,0,0C226.2,142,201.9,117.6,171.9,117.6
			C171.9,117.6,171.9,117.6,171.9,117.6 M171.5,207c-19.4-0.2-35-16-34.8-35.4c0.2-19.4,16-35,35.4-34.8c19.4,0.2,35,16,34.8,35.4
			c0,0,0,0,0,0C206.8,191.6,190.9,207.2,171.5,207 M241,115.6c0,7-5.7,12.7-12.7,12.7c-7,0-12.7-5.7-12.7-12.7
			c0-7,5.7-12.7,12.7-12.7C235.4,102.8,241.1,108.5,241,115.6C241,115.6,241,115.6,241,115.6"/>
	</g>
</g>
</svg>
