<?xml version="1.0" encoding="utf-8"?>
<!-- Generator: Adobe Illustrator 24.1.2, SVG Export Plug-In . SVG Version: 6.00 Build 0)  -->
<svg version="1.1" id="Layer_1" xmlns="http://www.w3.org/2000/svg" xmlns:xlink="http://www.w3.org/1999/xlink" x="0px" y="0px"
	 viewBox="0 0 473.8 216.8" style="enable-background:new 0 0 473.8 216.8;" xml:space="preserve">
<style type="text/css">
	.st0{fill:#FFFFFF;}
	.st1{fill:#E0E621;}
</style>
<path class="st0" d="M417.1,119.8c-9.2-5.9-8.8-14.5-8.6-18.1c0.8-14.3,10.7-25.5,18.2-36.9c7.2-11,14.2-24.3,12.5-37.9
	c-0.7-5.7-3-10.9-6.5-15.5c-6.1-8-15.3-11.6-25.2-11.4c-11.5,0.2-23,3.5-33.7,7.7c-9.6,3.8-18.7,8.8-27.2,14.8
	c-3.3,2.3-6.4,4.7-9.5,7.3c-1.6,1.3-3.2,2.7-4.7,4.1c-0.8,0.7-1.6,1.5-2.4,2.2c-0.3,0.3-2.4,1.9-2.3,2.2c-1-4.6-2.9-8.7-5.7-12.3
	c-6.1-7.9-14.2-10.8-20.1-11.7c-30.4-4.3-59.3,13.2-82,31.6c-23.5,19-44,41.3-65.6,62.4c-16.7,16.3-34.3,31.9-54.3,44.2
	c-13.4,8.3-27.7,14.4-43.1,17.7c-8,1.7-17.9,1.1-23.5-5.7c-14.4-17.5,12.3-41.6,23.9-52.8c15.6-15,33-28.1,50.8-40.4
	c3.4-2.4,6.9-4.6,10.4-6.9c5.8-3.8,11.6-7.6,17.5-11.3c3.5-2.2,7-4.5,10.7-6.5c2.8-1.5,5.6-3.1,8.2-4.8c1.5-1,3.1-2,4.3-3.5
	c4.5-5.6,7.2-14.2,1.7-23c-3.2-5.2-8.9-8.3-15.5-8.7c-6.1-0.3-13,1.5-19.9,5c-23.5,11.5-44.6,27.6-63.7,45.3
	C50.5,67.1,39.9,77.8,30,89.2c-9.6,11.1-19.5,22.9-25.2,36.6c-0.1,0.1-0.1,0.3-0.2,0.4c0,0,0,0,0,0.1c-5,12.3-6.5,26-1.9,38.7
	c5.5,15.4,18.7,27.1,34.5,31.3c10.8,2.9,21.3,1.4,32-1.1c11.1-2.7,21.7-6.9,31.8-12.1c45.7-23.7,82.4-62.3,119.4-97.4
	c9.7-9.2,19.5-18.1,30.2-26.1c5.4-4,11-7.8,16.8-11.2c6-3.5,12.7-7.7,19.6-8.9c4-0.7,7.7,0.3,10.5,3.1c6.5,6.3,1.8,16.2-1.6,22.8
	c-3.6,6.9-7.8,13.4-12.5,19.6c-4.5,5.9-9.6,11.4-13.8,17.5c-5,7.2-3.7,12.2-1.9,15.2c3.1,5.3,9.4,7.1,14.9,4.6
	c5.3-2.5,9.3-7.6,13.1-11.9c4.3-4.9,8.6-9.9,12.9-14.9c8.5-10,17.1-20,26.3-29.4c1.9-2,3.9-4,6-5.9c15.3-13.9,24.2-20.6,36.3-27.2
	c6.1-3.3,13.9-6.8,18.9-8c7.2-1.8,11.8-0.2,14.2,2.1c3.8,3.9,4.3,9.3,2.2,14.2c-2.8,6.4-7.1,12.6-10.9,18.4
	c-4.1,6.2-8.7,12-12.7,18.2c-7,10.9-12.6,24.1-7.4,36.9c7.9,19.5,28.3,20.9,34.6,19.3c2.3-0.6,4.5-2.2,5.3-4.4
	c0.9-2.5,0.6-4.5-0.3-6.3C420.1,121.7,418.6,120.8,417.1,119.8z"/>
<path class="st1" d="M320.4,162.5c-1.1-2.7-2.6-5.1-4.5-7.1c-1.9-2-4.3-3.6-7-4.7c-2.7-1.1-5.7-1.7-8.9-1.7c-4.7,0-8.9,1-12.6,3.1
	c-3.7,2.1-6.6,4.9-8.6,8.4c-1.7-3.5-4.1-6.3-7.3-8.4c-3.1-2.1-6.9-3.1-11.4-3.1c-3.7,0-7.2,0.7-10.3,2c-2.9,1.3-5.5,3-7.6,5.2
	c0-1.4-0.5-2.7-1.2-3.8c-1.4-2.1-3.7-3.5-6.4-3.5c-3.6,0-6.6,2.2-7.8,5.3c-0.4,0.9-0.7,2-0.7,3.1v24.4c0,4.9-1.2,8.7-3.7,11.3
	c-2.4,2.6-5.9,4-10.2,4c-3.7,0-6.7-1.2-8.8-3.6c-2.1-2.4-3.2-5.7-3.2-9.8v-26.1c0-4.3-3.5-7.7-7.7-7.7c-4.7,0-8.4,3.8-8.4,8.4v29.1
	c0,3.2,0.6,6.1,1.8,8.9c1.2,2.7,2.9,5.1,5.1,7.1c2.2,2,4.7,3.6,7.7,4.7c2.9,1.1,6.1,1.7,9.5,1.7c3.7,0,7.2-0.7,10.3-2
	c2.9-1.3,5.5-3,7.6-5.2c0,0.1,0.1,0.1,0.1,0.2c0.3,3.9,3.6,7,7.7,7c4.7,0,8.4-3.8,8.4-8.4v-13.4h0V177c0-4.9,1.2-8.7,3.7-11.3
	c2.4-2.6,5.9-4,10.2-4c3,0,5.4,1.2,7.2,3.6c1.8,2.4,2.6,5.7,2.6,9.8v12.7h0V202c0,4.3,3.5,7.7,7.7,7.7c2.4,0,4.5-1,6-2.5
	c1.5-1.3,2.4-3.2,2.4-5.3v-25c0-4.9,1.2-8.7,3.7-11.3c2.4-2.6,5.9-4,10.2-4c3,0,5.4,1.2,7.2,3.6c1.8,2.4,2.6,5.7,2.6,9.8v12.7v13.7
	v0.4c0,4.3,3.5,7.7,7.7,7.7c3,0,5.7-1.6,7.2-4c0.8-1.2,1.3-2.6,1.3-4.1v-0.3v-13.4v-16.5C322,168.2,321.4,165.2,320.4,162.5z"/>
<g>
	<path class="st0" d="M352.3,167.4c0-3.7-2.5-5.7-4.4-6.6c1.5-1.2,2.4-2.9,2.4-4.6c0-4.1-3.8-7.1-9.1-7.1h-10.4
		c-0.2,0-0.4,0.2-0.4,0.4v25.7c0,0.2,0.2,0.4,0.4,0.4h11.4C347.9,175.5,352.3,172,352.3,167.4z M341.2,159.3h-5.3V153h5.3
		c2.1,0,3.6,1.3,3.6,3.2C344.8,158,343.3,159.3,341.2,159.3z M346.8,167.4c0,2.4-2,4.2-4.6,4.2h-6.3v-8.3h6.3
		C344.8,163.2,346.8,165,346.8,167.4z"/>
	<path class="st0" d="M369.2,175.1c0,0.2,0.2,0.4,0.4,0.4h4.7c0.2,0,0.4-0.2,0.4-0.4v-19c0-0.2-0.2-0.4-0.4-0.4h-4.7
		c-0.2,0-0.4,0.2-0.4,0.4v8.4c0,3.5-1.4,7.7-5.2,7.7c-2.6,0-3.5-2.8-3.5-5.2v-10.8c0-0.2-0.2-0.4-0.4-0.4h-4.7
		c-0.2,0-0.4,0.2-0.4,0.4v10.8c0,5.8,3.1,9.1,8.9,9.1c1.8,0,3.6-0.6,5.2-1.5V175.1z"/>
	<path class="st0" d="M391.1,158.7v-3.1c0-0.2-0.2-0.4-0.4-0.4h-0.5c-2.4,0-4.5,0.6-6.3,1.6v-0.8c0-0.2-0.2-0.4-0.4-0.4h-4.7
		c-0.2,0-0.4,0.2-0.4,0.4v19c0,0.2,0.2,0.4,0.4,0.4h4.7c0.2,0,0.4-0.2,0.4-0.4v-8c0-1.9,0.1-3.2,0.3-3.9c0.6-2.5,3.1-4.2,6-4.2h0.5
		C390.9,159.1,391.1,158.9,391.1,158.7z"/>
	<path class="st0" d="M412.9,155.7h-4.7c-0.2,0-0.4,0.2-0.4,0.4v0.5c-1.6-0.9-3.5-1.4-5.5-1.4c-6.4,0-10.9,4.1-10.9,10.1
		c0,5.9,4.5,10.1,10.9,10.1c2.1,0,4-0.5,5.6-1.3c-0.2,3.1-2,4.8-5.3,4.8c-4.2,0-6.3-3.1-6.3-3.1c0-0.1-0.1-0.1-0.2-0.2
		c-0.1,0-0.2,0-0.3,0l-2.6,1.6c-0.2,0.1-0.2,0.3-0.1,0.5l0.3,0.5c1.6,2.7,5.3,4.4,9.3,4.4c6.7,0,10.7-3.4,10.7-9.2v-17.4
		C413.2,155.9,413.1,155.7,412.9,155.7z M407.8,165.3c0,2.7-1.3,4.9-3.4,5.8c-0.7,0.3-1.4,0.4-2.1,0.4c-3.2,0-5.5-2.6-5.5-6.3
		c0-3.6,2.3-6.3,5.5-6.3C405.5,159,407.8,161.7,407.8,165.3z"/>
	<path class="st0" d="M451.9,158.7v-3.1c0-0.2-0.2-0.4-0.4-0.4H451c-2.4,0-4.5,0.6-6.3,1.6v-0.8c0-0.2-0.2-0.4-0.4-0.4h-4.7
		c-0.2,0-0.4,0.2-0.4,0.4v19c0,0.2,0.2,0.4,0.4,0.4h4.7c0.2,0,0.4-0.2,0.4-0.4v-8c0-1.9,0.1-3.2,0.3-3.9c0.6-2.5,3.1-4.2,6-4.2h0.5
		C451.8,159.1,451.9,158.9,451.9,158.7z"/>
	<path class="st0" d="M426.2,155.2c-5.8,0-10.4,4.6-10.4,10.4c0,6,4.5,10.4,10.7,10.4c3.7,0,7.2-1.8,9.3-4.7c0.1-0.1,0.1-0.3,0-0.5
		c0,0-3-1.7-3-1.7c-0.2-0.1-0.4-0.1-0.6,0.1c0,0-1.9,3-5.7,3c-3.5,0-5-3.2-5.1-4.7h14.8c0.2,0,0.4-0.2,0.4-0.4v-1.8
		C436.5,159.5,432.1,155.2,426.2,155.2z M421.4,163.7c0.7-2.8,2.6-4.7,4.8-4.7c2.3,0,4.2,1.9,4.8,4.7H421.4z"/>
	<path class="st0" d="M473.7,175.7l-3.3-3.6c0.8-1.3,1.4-2.9,1.7-4.6c0-0.1,0-0.2-0.1-0.3c-0.1-0.1-0.2-0.1-0.3-0.1h-3.1
		c-0.2,0-0.3,0.1-0.3,0.3c-0.2,0.7-0.4,1.2-0.6,1.7l-2.9-3.3c2.1-1.2,4-2.7,4-5.4c0-2.9-2.6-5-6.2-5c-3.5,0-6.3,2.3-6.3,5.1
		c0,1.6,1,3,2.3,4.4c-2.1,1.1-4.3,3.3-4.3,5.8c0,4.3,3.8,6.2,7.6,6.2c2.6,0,4.5-0.6,6.1-1.9l1.2,1.3c0.1,0.1,0.2,0.1,0.3,0.1h4.1
		c0.1,0,0.3-0.1,0.3-0.2C473.8,175.9,473.8,175.8,473.7,175.7z M462.8,162.8l-0.7,0.4c-0.7-0.7-1.5-1.7-1.5-2.8c0-1.2,0.8-2,1.9-2
		c1.1,0,1.8,0.7,1.8,1.9C464.3,161.3,463.8,162.1,462.8,162.8z M461.1,167.4l0.6,0.6c0.5,0.6,1.1,1.2,1.6,1.8l2.1,2.4
		c-0.7,0.7-1.9,1.5-3.6,1.5c-2,0-3.2-1.1-3.2-3C458.6,169.5,459.5,168.3,461.1,167.4z"/>
</g>
<g>
	<path class="st0" d="M367.3,183.3h-4.8c-0.2,0-0.3,0.1-0.3,0.3l-5.4,17.7l-5.4-17.7c0-0.2-0.2-0.3-0.3-0.3h-3.9
		c-0.2,0-0.3,0.1-0.3,0.3l-5.4,17.7l-5.4-17.7c0-0.2-0.2-0.3-0.3-0.3h-4.8c-0.1,0-0.2,0.1-0.3,0.1c-0.1,0.1-0.1,0.2,0,0.3l8.6,25.7
		c0,0.1,0.2,0.2,0.3,0.2h4c0.2,0,0.3-0.1,0.3-0.3l5.3-17.3l5.4,17.3c0,0.2,0.2,0.3,0.3,0.3h4c0.2,0,0.3-0.1,0.3-0.2l8.6-25.7
		c0-0.1,0-0.2,0-0.3C367.5,183.4,367.4,183.3,367.3,183.3z"/>
	<path class="st0" d="M389.2,189.4c-1.9,0-3.7,0.5-5.2,1.5v-0.6c0-0.2-0.2-0.4-0.4-0.4h-4.7c-0.2,0-0.4,0.2-0.4,0.4v19
		c0,0.2,0.2,0.4,0.4,0.4h4.7c0.2,0,0.4-0.2,0.4-0.4v-8.8c0-2.7,0.7-7.2,5.2-7.2c2.3,0,3.5,1.8,3.5,5.2v10.8c0,0.2,0.2,0.4,0.4,0.4
		h4.7c0.2,0,0.4-0.2,0.4-0.4v-11.5C398,192.3,395,189.4,389.2,189.4z"/>
	<path class="st0" d="M421.8,189.9h-4.7c-0.2,0-0.4,0.2-0.4,0.4v0.5c-1.6-0.9-3.5-1.4-5.5-1.4c-6.4,0-10.9,4.1-10.9,10.1
		c0,5.9,4.5,10.1,10.9,10.1c2.1,0,4-0.5,5.6-1.3c-0.2,3.1-2,4.8-5.3,4.8c-4.2,0-6.3-3.1-6.3-3.1c0-0.1-0.1-0.1-0.2-0.2
		c-0.1,0-0.2,0-0.3,0l-2.6,1.6c-0.2,0.1-0.2,0.3-0.1,0.5l0.3,0.5c1.6,2.7,5.3,4.4,9.3,4.4c6.7,0,10.7-3.4,10.7-9.2v-17.4
		C422.1,190.1,422,189.9,421.8,189.9z M416.7,199.5c0,2.7-1.3,4.9-3.4,5.8c-0.7,0.3-1.4,0.4-2.1,0.4c-3.2,0-5.5-2.6-5.5-6.3
		c0-3.6,2.3-6.3,5.5-6.3C414.4,193.2,416.7,195.8,416.7,199.5z"/>
	<path class="st0" d="M434.4,198.2l-2.5-1c-1-0.4-1.5-1.1-1.5-2.1c0-1,0.6-1.9,1.9-1.9c1,0,2.1,0.6,3.1,1.7l0.3,0.4
		c0.1,0.1,0.2,0.1,0.3,0.1c0.1,0,0.2,0,0.3-0.1l2.6-2.6c0.1-0.1,0.1-0.4,0-0.5l-0.2-0.2c-1.6-1.7-3.8-2.6-6.4-2.6
		c-4.2,0-7.2,2.4-7.2,5.7c0,2.5,1.6,4.2,5.1,5.6l2.6,1c1.5,0.6,2.1,1.3,2.1,2.5c0,1.4-0.9,2.2-2.5,2.2c-2.5,0-4.7-3.5-4.7-3.5
		c-0.1-0.1-0.2-0.2-0.3-0.2c-0.1,0-0.2,0-0.3,0.1l-2.7,2.7c-0.1,0.1-0.1,0.3-0.1,0.4c1.1,2,4.4,4.1,8.1,4.1c5.2,0,7.8-3,7.8-6
		C440.1,200.9,437,199.2,434.4,198.2z"/>
	<g>
		<path class="st0" d="M374.3,189.9h-4.7c-0.2,0-0.4,0.2-0.4,0.4v19c0,0.2,0.2,0.4,0.4,0.4h4.7c0.2,0,0.4-0.2,0.4-0.4v-19
			C374.6,190.1,374.5,189.9,374.3,189.9z"/>
		<path class="st0" d="M374.7,186.1c0,1.5-1.3,2.8-2.8,2.8s-2.8-1.3-2.8-2.8c0-1.5,1.3-2.8,2.8-2.8S374.7,184.6,374.7,186.1z"/>
	</g>
</g>
</svg>
