<?xml version="1.0" encoding="utf-8"?>
<!-- Generator: Adobe Illustrator 24.1.2, SVG Export Plug-In . SVG Version: 6.00 Build 0)  -->
<svg version="1.1" id="Layer_1" xmlns="http://www.w3.org/2000/svg" xmlns:xlink="http://www.w3.org/1999/xlink" x="0px" y="0px"
	 viewBox="0 0 25.3 27.4" style="enable-background:new 0 0 25.3 27.4;" xml:space="preserve">
<style type="text/css">
	.st0{fill:#FFFFFF;}
</style>
<polygon class="st0" points="19.5,16.3 18.5,16.1 19.9,10.6 17.4,6.4 11.9,5.1 12.1,4.1 18,5.6 20.9,10.4 "/>
<polygon class="st0" points="23.5,16.6 22.5,16.3 24.2,9.5 20.4,3.1 13.6,1.4 13.8,0.5 21,2.2 25.3,9.3 "/>
<path class="st0" d="M16.5,27.4l-4.4-1.1L3.4,17L0,6.4l1-4.1L4.7,0l4.3,1.1l1.2,7.8l-2.6,1.6l1.1,3.5l3.2,3.4l2.8-1.7l6.7,4.9
	L20.4,25L16.5,27.4z M12.7,25.4l3.7,0.9l3.2-1.9l0.8-3.5l-5.6-4.1l-2.9,1.8l-4-4.3L6.4,10l2.7-1.6l-1-6.5L4.9,1.1l-3,1.8L1,6.3
	l3.3,10.2L12.7,25.4z"/>
</svg>
