<?xml version="1.0" encoding="UTF-8"?>
<svg id="Layer_1" data-name="Layer 1" xmlns="http://www.w3.org/2000/svg" viewBox="0 0 200 320">
  <defs>
    <style>
      .cls-1 {
        fill: #fff;
      }

      .cls-2 {
        fill: #bfdb38;
      }

      .cls-3 {
        fill: #053b9f;
      }

      .cls-4 {
        fill: #e0e621;
      }
    </style>
  </defs>
  <rect class="cls-3" width="200" height="320" rx="20" ry="20"/>
  <g>
    <polyline class="cls-1" points="76.92 320 99.73 251.6 0 207"/>
    <polyline class="cls-1" points="123.08 320 100.27 251.6 200 207"/>
  </g>
  <g>
    <path class="cls-1" d="M177.77,126.73H21.12c-.84,.52-1.33,1.08-1.33,1.67,0,2.77,10.23,5.01,22.85,5.01,2.21,0,4.34-.07,6.36-.2,2.62,3.32,11.48,5.77,22.04,5.77s19.42-2.45,22.04-5.77c2.02,.13,4.15,.2,6.36,.2s4.34-.07,6.36-.2c2.62,3.32,11.48,5.77,22.04,5.77s19.42-2.45,22.04-5.77c2.02,.13,4.15,.2,6.36,.2,12.62,0,22.85-2.24,22.85-5.01,0-.59-.48-1.15-1.33-1.67Z"/>
    <g>
      <path class="cls-1" d="M170.45,139.39h-21.21c-3.4,2.85-11.56,4.87-21.13,4.87s-17.73-2.01-21.13-4.87h-14.55c-3.4,2.85-11.56,4.87-21.13,4.87s-17.73-2.01-21.13-4.87H28.97c-5.23,0-9.47,4.24-9.47,9.47s4.24,9.47,9.47,9.47H170.45c5.23,0,9.47-4.24,9.47-9.47s-4.24-9.47-9.47-9.47Z"/>
      <g>
        <path class="cls-1" d="M124.89,59.34l-43.14-5.16c-27.19-3.25-51.86,16.15-55.12,43.33h0c-.73,6.11,3.63,11.65,9.74,12.39l119.47,14.3c6.11,.73,11.65-3.63,12.39-9.74h0c3.25-27.19-16.15-51.86-43.33-55.12Zm-65.99,14.26c-1.7,.12-3.19-.16-3.33-.61-.14-.45,1.12-.92,2.82-1.03,1.7-.11,3.19,.16,3.33,.61,.14,.45-1.12,.92-2.82,1.03Zm7-5.22c-1.7,.11-3.19-.16-3.33-.61-.14-.45,1.12-.92,2.82-1.03,1.7-.12,3.19,.16,3.33,.61,.14,.45-1.12,.92-2.82,1.03Zm8.58,6.97c-1.7,.12-3.19-.16-3.33-.61-.14-.45,1.12-.92,2.82-1.03,1.7-.12,3.19,.16,3.33,.61,.14,.45-1.12,.92-2.82,1.03Zm5.91-5.15c-1.7,.12-3.19-.16-3.33-.61-.14-.45,1.12-.92,2.82-1.03,1.7-.11,3.19,.16,3.33,.61,.14,.45-1.12,.92-2.82,1.03Z"/>
        <path class="cls-1" d="M22.51,94.83s-11.14,16.71,28.97,20.05c40.11,3.34,90.13,9.39,90.13,9.39,0,0-39.99-2.71-48.9-1.59s-30.84,4.3-37.14,1.59-10.87,.48-23.63,0-15.44-10.08-11.87-14.19-7.57-9.68,2.46-15.25Z"/>
      </g>
    </g>
    <g>
      <path class="cls-1" d="M69.59,177.27H33.26c-3.27,0-5.93,2.65-5.93,5.93,0,14.57,11.81,26.38,26.38,26.38H123.14c-13.55-15.84-34.18-25.93-53.55-32.31Z"/>
      <path class="cls-1" d="M144.61,208.93c9.45-2.12,16.97-9.31,19.58-18.56-5.76,6.49-13.17,13.18-19.58,18.56Z"/>
    </g>
    <g>
      <path class="cls-2" d="M20.47,221.33v37.88c-3.05,.88-4.58,1.32-7.63,2.2-11.57-4.41-8.33-27.71-8.33-37.72s-.03-37.36,8.33-37.61c1.94-.06,4.76,2.57,6.92,4.99-.14,8.97-.21,13.47-.36,22.5-1.91-1.09-3.83-2.23-5.74-2.44-1.78-.19-2.91,3.7-2.91,12.6s1.12,12.8,2.91,12.64l1.46-.14v-15.06c2.14,.06,3.21,.09,5.35,.15Z"/>
      <path class="cls-2" d="M26.98,211.77v4.67c3,.22,4.49,.32,7.49,.54v14.55c-3,.2-4.49,.29-7.49,.49v4.68c3.1-.33,4.65-.5,7.76-.83v19.22c-5.42,1.56-8.13,2.35-13.55,3.91v-68.76c5.39,1.55,8.08,2.33,13.47,3.89v18.51c-3.07-.35-4.6-.52-7.67-.87Z"/>
      <path class="cls-2" d="M35.44,194.36c2.5,.72,3.75,1.08,6.24,1.8,1.57,11.43,2.35,16.93,3.92,27.49v-26.35c2.21,.64,3.32,.96,5.53,1.6v51.47c-2.5,.72-3.75,1.08-6.24,1.8-1.57-10.17-2.35-15.47-3.92-26.51v27.65c-2.21,.64-3.32,.96-5.53,1.6v-60.53Z"/>
      <path class="cls-2" d="M56.04,248.95v-31.27c-1.71-.14-2.57-.21-4.28-.35v-18.25c5.85,1.69,8.78,2.53,14.63,4.22v15.24c-1.71-.14-2.57-.21-4.28-.35v29.02c-2.43,.7-3.64,1.05-6.06,1.75Z"/>
      <path class="cls-2" d="M79.84,242.08c-5.14,1.48-7.71,2.22-12.84,3.71v-42.31c2.43,.7,3.64,1.05,6.06,1.75v25.41c2.71-.24,4.07-.36,6.78-.61v12.05Z"/>
      <path class="cls-2" d="M86.35,218.51v2.22c3,.22,4.49,.32,7.49,.54v6.39c-3,.2-4.49,.29-7.49,.49v2.23c3.1-.33,4.65-.5,7.76-.83v8.41c-5.42,1.56-8.13,2.35-13.55,3.91v-34.49c5.39,1.55,8.08,2.33,13.47,3.89v8.11c-3.07-.35-4.6-.52-7.67-.87Z"/>
      <path class="cls-2" d="M98.38,236.73v-24.2c3.79,1.09,5.68-.58,9.47-1.68,4.3-1.24,6.1,.9,6.1,6.12,0,3.11-.71,5.44-2.16,6.84,1.82,1.29,2.91,4.27,2.91,7.72,0,6-1.64,8.38-6.85,6.87-1.18-.34-1.78-.51-2.96-.85-.21-3.08-.32-4.6-.53-7.6,1.13,.14,1.7,.2,2.83,.34,1.21,.15,1.71-.33,1.71-1.47s-.5-1.7-1.71-1.76c-1.21-.06-1.81-.09-3.01-.16v10.45c-2.32-.67-3.48-1.29-5.8-.62Zm8.72-15.33c.96-.07,1.41-.63,1.41-1.59s-.45-1.44-1.41-1.31c-1.17,.15-1.75,.23-2.92,.38v2.73c1.17-.08,1.75-.12,2.92-.2Z"/>
      <path class="cls-2" d="M115.22,208.72c2.43-.7,3.64-1.05,6.06-1.75v19.63c0,2.9,.59,4.18,1.78,4.3s1.78-1.11,1.78-4.18v-20.78c2.43-.7,3.64-1.05,6.06-1.75v24.82c0,11.19-2.85,16.17-7.85,14.66-4.99-1.51-7.85-6.92-7.85-15.63v-19.32Z"/>
      <path class="cls-2" d="M137.69,220.2c.55-.03,.82-.05,1.37-.08,1.43-.08,2.28-1.02,2.28-2.87s-.86-2.57-2.28-2.4c-.41,.05-.61,.08-1.02,.13,.21-5.17,.32-7.77,.53-13.01,.52-.15,.78-.23,1.3-.38,5.6-1.62,7.61,4.17,7.61,15.1,0,6.73-.75,11.74-2.64,14.39,1.34,7.3,2.01,11.09,3.35,18.96-2.92-.84-4.39-1.27-7.31-2.11-.78-6.07-1.18-9.03-1.96-14.81-.5-.05-.75-.08-1.25-.13v14.02c-2.43-.7-3.64-1.05-6.06-1.75v-41.28c2.43-.7,3.64-1.05,6.06-1.75v17.97Z"/>
      <path class="cls-2" d="M164.35,221.76v32.95c-3.05-.88-4.58-1.32-7.63-2.2-8.66-6.2-8.33-18.98-8.33-28.49,0-9.55,.36-24.64,8.33-28.6,2.13-1.06,4.76-.57,6.92,.4-.14,7.78-.21,11.66-.36,19.38-1.91-.6-3.84-1.15-5.74-.95-1.78,.19-2.91,3.23-2.91,9.73s1.12,9.52,2.91,9.69c.58,.05,.88,.08,1.46,.14v-11.89c2.14-.06,3.21-.09,5.35-.15Z"/>
      <path class="cls-2" d="M170.85,212.07v4.56c3-.22,4.49-.32,7.49-.54v16.25c-3-.2-4.49-.29-7.49-.49v4.57c3.1,.33,4.65,.5,7.76,.83v21.58c-5.42-1.56-8.13-2.35-13.56-3.91v-60.58c5.39-1.55,8.08-2.33,13.47-3.89v20.75c-3.07,.35-4.6,.52-7.67,.87Z"/>
      <path class="cls-2" d="M185.38,217.48c.55-.03,.82-.05,1.37-.08,1.43-.08,2.28-1.55,2.28-4.47s-.86-4.15-2.28-3.97c-.41,.05-.61,.08-1.02,.13,.21-8.31,.32-12.49,.53-20.87,.52-.15,.78-.23,1.3-.38,5.6-1.62,7.61,7.64,7.61,24.53,0,10.4-.75,18.13-2.64,22.36,1.34,11.35,2.01,17.17,3.35,29.09-2.92-.84-4.39-1.27-7.31-2.11-.78-9.51-1.18-14.2-1.96-23.43-.5-.05-.75-.08-1.25-.13v22.64c-2.43-.7-3.64-1.05-6.06-1.75v-68.81c2.43-.7,3.64-1.05,6.06-1.75v29.01Z"/>
    </g>
    <path class="cls-4" d="M28.45,163.9s78.39,5.6,102.79,49.02c0,0,57.31-42.02,34.35-49.02H28.45Z"/>
  </g>
</svg>