<?xml version="1.0" encoding="UTF-8"?>
<svg id="Layer_1" data-name="Layer 1" xmlns="http://www.w3.org/2000/svg" viewBox="0 0 147.35 145.47">
  <defs>
    <style>
      .cls-1 {
        stroke: #053b9f;
      }

      .cls-1, .cls-2 {
        fill: none;
        stroke-miterlimit: 10;
        stroke-width: 2px;
      }

      .cls-2 {
        stroke: #e0e621;
      }
    </style>
  </defs>
  <path class="cls-1" d="M144.41,66.53H3.61c-.76,.47-1.19,.97-1.19,1.5,0,2.49,9.19,4.51,20.53,4.51,1.99,0,3.9-.07,5.72-.18,2.35,2.99,10.32,5.19,19.81,5.19s17.46-2.2,19.81-5.19c1.82,.12,3.73,.18,5.72,.18s3.9-.07,5.72-.18c2.35,2.99,10.32,5.19,19.81,5.19s17.46-2.2,19.81-5.19c1.82,.12,3.73,.18,5.72,.18,11.34,0,20.53-2.02,20.53-4.51,0-.53-.43-1.03-1.19-1.5Z"/>
  <g>
    <path class="cls-1" d="M137.83,77.91h-19.07c-3.05,2.56-10.39,4.37-18.99,4.37s-15.94-1.81-18.99-4.37h-13.08c-3.05,2.56-10.39,4.37-18.99,4.37s-15.94-1.81-18.99-4.37H10.67c-4.7,0-8.51,3.81-8.51,8.51s3.81,8.51,8.51,8.51h127.17c4.7,0,8.51-3.81,8.51-8.51s-3.81-8.51-8.51-8.51Z"/>
    <g>
      <path class="cls-1" d="M96.88,5.96L58.11,1.32C33.67-1.6,11.49,15.83,8.57,40.27h0c-.66,5.49,3.26,10.48,8.75,11.13l107.38,12.85c5.49,.66,10.48-3.26,11.13-8.75h0c2.92-24.43-14.51-46.61-38.95-49.54Zm-59.31,12.82c-1.53,.1-2.87-.14-3-.55-.13-.41,1.01-.82,2.53-.93,1.53-.1,2.87,.14,3,.55,.13,.41-1.01,.82-2.53,.93Zm6.29-4.69c-1.53,.1-2.87-.14-3-.55-.13-.41,1.01-.82,2.53-.93,1.53-.1,2.87,.14,3,.55,.13,.41-1.01,.82-2.53,.93Zm7.71,6.26c-1.53,.1-2.87-.14-3-.55-.13-.41,1.01-.82,2.53-.93,1.53-.1,2.87,.14,3,.55,.13,.41-1.01,.82-2.53,.93Zm5.31-4.62c-1.53,.1-2.87-.14-3-.55-.13-.41,1.01-.82,2.53-.93,1.53-.1,2.87,.14,3,.55,.13,.41-1.01,.82-2.53,.93Z"/>
      <path class="cls-1" d="M4.87,37.86s-10.01,15.02,26.03,18.02,81,8.44,81,8.44c0,0-35.95-2.43-43.96-1.43-8.01,1-27.72,3.86-33.39,1.43-5.67-2.43-9.77,.43-21.24,0-11.46-.43-13.88-9.06-10.67-12.75s-6.8-8.7,2.21-13.71Z"/>
    </g>
  </g>
  <g>
    <path class="cls-1" d="M47.18,111.96H14.53c-2.94,0-5.33,2.39-5.33,5.33,0,13.09,10.62,23.71,23.71,23.71h62.4c-12.18-14.24-30.72-23.31-48.13-29.04Z"/>
    <path class="cls-1" d="M114.6,140.41c8.49-1.91,15.26-8.37,17.6-16.68-5.17,5.84-11.84,11.85-17.6,16.68Z"/>
  </g>
  <path class="cls-2" d="M10.2,99.94s70.46,5.04,92.39,44.06c0,0,51.51-37.76,30.88-44.06H10.2Z"/>
</svg>