<?xml version="1.0" encoding="UTF-8"?>
<svg id="Layer_1" data-name="Layer 1" xmlns="http://www.w3.org/2000/svg" viewBox="0 0 1921 155.3">
  <defs>
    <style>
      .cls-1 {
        stroke: #053b9f;
      }

      .cls-1, .cls-2 {
        fill: none;
        stroke-miterlimit: 10;
        stroke-width: 2px;
      }

      .cls-3 {
        fill: #fff;
      }

      .cls-2 {
        stroke: #e0e621;
      }

      .cls-4 {
        fill: #053b9f;
      }

      .cls-5 {
        fill: #e0e621;
      }
    </style>
  </defs>
  <g>
    <g>
      <path class="cls-4" d="M273.46,82.25H140.7c-.72,.44-1.13,.92-1.13,1.42,0,2.35,8.67,4.25,19.36,4.25,1.87,0,3.68-.06,5.39-.17,2.22,2.82,9.73,4.89,18.68,4.89s16.46-2.08,18.68-4.89c1.71,.11,3.52,.17,5.39,.17s3.68-.06,5.39-.17c2.22,2.82,9.73,4.89,18.68,4.89s16.46-2.08,18.68-4.89c1.71,.11,3.52,.17,5.39,.17,10.69,0,19.36-1.9,19.36-4.25,0-.5-.41-.97-1.13-1.42Z"/>
      <g>
        <path class="cls-3" d="M178.62,84.49h-10.53s1.03,4.68,5.61,4.68c0,0-.39-2.77,4.93-4.68Z"/>
        <path class="cls-3" d="M227.71,84.49h-10.53s1.03,4.68,5.61,4.68c0,0-.39-2.77,4.93-4.68Z"/>
      </g>
    </g>
    <g>
      <path class="cls-4" d="M267.26,92.98h-17.98c-2.88,2.42-9.79,4.12-17.91,4.12s-15.03-1.71-17.91-4.12h-12.34c-2.88,2.42-9.79,4.12-17.91,4.12s-15.03-1.71-17.91-4.12h-17.98c-4.43,0-8.03,3.59-8.03,8.03s3.59,8.03,8.03,8.03h119.91c4.43,0,8.03-3.59,8.03-8.03s-3.59-8.03-8.03-8.03Z"/>
      <g>
        <path class="cls-4" d="M228.64,25.14l-36.56-4.38c-23.04-2.76-43.95,13.68-46.71,36.72h0c-.62,5.18,3.08,9.88,8.25,10.5l101.25,12.12c5.18,.62,9.88-3.08,10.5-8.25h0c2.76-23.04-13.68-43.95-36.72-46.71Zm-55.93,12.09c-1.44,.1-2.71-.14-2.83-.52-.12-.39,.95-.78,2.39-.87,1.44-.1,2.71,.14,2.83,.52,.12,.39-.95,.78-2.39,.87Zm5.93-4.42c-1.44,.1-2.71-.14-2.83-.52-.12-.39,.95-.78,2.39-.87,1.44-.1,2.71,.14,2.83,.52,.12,.39-.95,.78-2.39,.87Zm7.27,5.9c-1.44,.1-2.71-.14-2.83-.52-.12-.39,.95-.78,2.39-.87,1.44-.1,2.71,.14,2.83,.52,.12,.39-.95,.78-2.39,.87Zm5.01-4.36c-1.44,.1-2.71-.14-2.83-.52-.12-.39,.95-.78,2.39-.87,1.44-.1,2.71,.14,2.83,.52,.12,.39-.95,.78-2.39,.87Z"/>
        <path class="cls-4" d="M141.88,55.22s-9.44,14.16,24.55,17c33.99,2.83,76.38,7.96,76.38,7.96,0,0-33.89-2.29-41.45-1.35-7.55,.94-26.14,3.64-31.48,1.35-5.34-2.29-9.22,.41-20.03,0-10.81-.41-13.09-8.54-10.06-12.03s-6.42-8.21,2.08-12.93Z"/>
      </g>
    </g>
    <g>
      <g>
        <path class="cls-4" d="M181.78,125.09h-30.79c-2.77,0-5.02,2.25-5.02,5.02,0,12.35,10.01,22.36,22.36,22.36h58.84c-11.48-13.43-28.97-21.98-45.38-27.38Z"/>
        <path class="cls-4" d="M245.35,151.92c8.01-1.8,14.39-7.89,16.6-15.73-4.88,5.5-11.16,11.17-16.6,15.73Z"/>
      </g>
      <path class="cls-5" d="M146.91,113.76s66.44,4.75,87.12,41.54c0,0,48.58-35.61,29.11-41.54h-116.23Z"/>
    </g>
  </g>
  <g>
    <path class="cls-1" d="M136.41,62.87H3.47c-.72,.44-1.13,.92-1.13,1.42,0,2.35,8.68,4.25,19.39,4.25,1.88,0,3.68-.06,5.4-.17,2.22,2.82,9.74,4.9,18.7,4.9s16.48-2.08,18.7-4.9c1.72,.11,3.52,.17,5.4,.17s3.68-.06,5.4-.17c2.22,2.82,9.74,4.9,18.7,4.9s16.48-2.08,18.7-4.9c1.72,.11,3.52,.17,5.4,.17,10.71,0,19.39-1.9,19.39-4.25,0-.5-.41-.97-1.13-1.42Z"/>
    <g>
      <path class="cls-1" d="M130.2,73.62h-18c-2.88,2.42-9.81,4.13-17.93,4.13s-15.05-1.71-17.93-4.13h-12.35c-2.88,2.42-9.81,4.13-17.93,4.13s-15.05-1.71-17.93-4.13H10.13c-4.44,0-8.04,3.6-8.04,8.04s3.6,8.04,8.04,8.04h120.07c4.44,0,8.04-3.6,8.04-8.04s-3.6-8.04-8.04-8.04Z"/>
      <g>
        <path class="cls-1" d="M91.53,5.68L54.92,1.3C31.85-1.46,10.91,15,8.15,38.08h0c-.62,5.18,3.08,9.89,8.26,10.51l101.38,12.14c5.18,.62,9.89-3.08,10.51-8.26h0c2.76-23.07-13.7-44.01-36.77-46.77Zm-56,12.1c-1.44,.1-2.71-.14-2.83-.52-.12-.39,.95-.78,2.39-.88,1.44-.1,2.71,.14,2.83,.52,.12,.39-.95,.78-2.39,.88Zm5.94-4.43c-1.44,.1-2.71-.14-2.83-.52-.12-.39,.95-.78,2.39-.88,1.44-.1,2.71,.14,2.83,.52,.12,.39-.95,.78-2.39,.88Zm7.28,5.91c-1.44,.1-2.71-.14-2.83-.52-.12-.39,.95-.78,2.39-.88,1.44-.1,2.71,.14,2.83,.52,.12,.39-.95,.78-2.39,.88Zm5.02-4.37c-1.44,.1-2.71-.14-2.83-.52-.12-.39,.95-.78,2.39-.88,1.44-.1,2.71,.14,2.83,.52,.12,.39-.95,.78-2.39,.88Z"/>
        <path class="cls-1" d="M4.65,35.8s-9.45,14.18,24.58,17.02c34.04,2.84,76.48,7.97,76.48,7.97,0,0-33.94-2.3-41.5-1.35-7.56,.95-26.17,3.65-31.52,1.35-5.35-2.3-9.23,.41-20.05,0-10.82-.41-13.1-8.55-10.07-12.04s-6.42-8.22,2.09-12.94Z"/>
      </g>
    </g>
    <g>
      <path class="cls-1" d="M44.6,105.76H13.77c-2.78,0-5.03,2.25-5.03,5.03,0,12.36,10.02,22.39,22.39,22.39h58.91c-11.5-13.44-29.01-22.01-45.44-27.42Z"/>
      <path class="cls-1" d="M108.26,132.63c8.02-1.8,14.4-7.9,16.62-15.75-4.88,5.51-11.18,11.18-16.62,15.75Z"/>
    </g>
    <path class="cls-2" d="M9.69,94.42s66.52,4.75,87.23,41.6c0,0,48.64-35.66,29.15-41.6H9.69Z"/>
  </g>
  <g>
    <g>
      <path class="cls-4" d="M547.75,82.25h-132.77c-.72,.44-1.13,.92-1.13,1.42,0,2.35,8.67,4.25,19.36,4.25,1.87,0,3.68-.06,5.39-.17,2.22,2.82,9.73,4.89,18.68,4.89s16.46-2.08,18.68-4.89c1.71,.11,3.52,.17,5.39,.17s3.68-.06,5.39-.17c2.22,2.82,9.73,4.89,18.68,4.89s16.46-2.08,18.68-4.89c1.71,.11,3.52,.17,5.39,.17,10.69,0,19.36-1.9,19.36-4.25,0-.5-.41-.97-1.13-1.42Z"/>
      <g>
        <path class="cls-3" d="M452.9,84.49h-10.53s1.03,4.68,5.61,4.68c0,0-.39-2.77,4.93-4.68Z"/>
        <path class="cls-3" d="M502,84.49h-10.53s1.03,4.68,5.61,4.68c0,0-.39-2.77,4.93-4.68Z"/>
      </g>
    </g>
    <g>
      <path class="cls-4" d="M541.55,92.98h-17.98c-2.88,2.42-9.79,4.12-17.91,4.12s-15.03-1.71-17.91-4.12h-12.34c-2.88,2.42-9.79,4.12-17.91,4.12s-15.03-1.71-17.91-4.12h-17.98c-4.43,0-8.03,3.59-8.03,8.03s3.59,8.03,8.03,8.03h119.91c4.43,0,8.03-3.59,8.03-8.03s-3.59-8.03-8.03-8.03Z"/>
      <g>
        <path class="cls-4" d="M502.93,25.14l-36.56-4.38c-23.04-2.76-43.95,13.68-46.71,36.72h0c-.62,5.18,3.08,9.88,8.25,10.5l101.25,12.12c5.18,.62,9.88-3.08,10.5-8.25h0c2.76-23.04-13.68-43.95-36.72-46.71Zm-55.93,12.09c-1.44,.1-2.71-.14-2.83-.52-.12-.39,.95-.78,2.39-.87,1.44-.1,2.71,.14,2.83,.52,.12,.39-.95,.78-2.39,.87Zm5.93-4.42c-1.44,.1-2.71-.14-2.83-.52-.12-.39,.95-.78,2.39-.87,1.44-.1,2.71,.14,2.83,.52,.12,.39-.95,.78-2.39,.87Zm7.27,5.9c-1.44,.1-2.71-.14-2.83-.52-.12-.39,.95-.78,2.39-.87,1.44-.1,2.71,.14,2.83,.52,.12,.39-.95,.78-2.39,.87Zm5.01-4.36c-1.44,.1-2.71-.14-2.83-.52-.12-.39,.95-.78,2.39-.87,1.44-.1,2.71,.14,2.83,.52,.12,.39-.95,.78-2.39,.87Z"/>
        <path class="cls-4" d="M416.16,55.22s-9.44,14.16,24.55,17c33.99,2.83,76.38,7.96,76.38,7.96,0,0-33.89-2.29-41.45-1.35-7.55,.94-26.14,3.64-31.48,1.35-5.34-2.29-9.22,.41-20.03,0-10.81-.41-13.09-8.54-10.06-12.03s-6.42-8.21,2.08-12.93Z"/>
      </g>
    </g>
    <g>
      <g>
        <path class="cls-4" d="M456.06,125.09h-30.79c-2.77,0-5.02,2.25-5.02,5.02,0,12.35,10.01,22.36,22.36,22.36h58.84c-11.48-13.43-28.97-21.98-45.38-27.38Z"/>
        <path class="cls-4" d="M519.64,151.92c8.01-1.8,14.39-7.89,16.6-15.73-4.88,5.5-11.16,11.17-16.6,15.73Z"/>
      </g>
      <path class="cls-5" d="M421.19,113.76s66.44,4.75,87.12,41.54c0,0,48.58-35.61,29.11-41.54h-116.23Z"/>
    </g>
  </g>
  <g>
    <path class="cls-1" d="M410.69,62.87h-132.94c-.72,.44-1.13,.92-1.13,1.42,0,2.35,8.68,4.25,19.39,4.25,1.88,0,3.68-.06,5.4-.17,2.22,2.82,9.74,4.9,18.7,4.9s16.48-2.08,18.7-4.9c1.72,.11,3.52,.17,5.4,.17s3.68-.06,5.4-.17c2.22,2.82,9.74,4.9,18.7,4.9s16.48-2.08,18.7-4.9c1.72,.11,3.52,.17,5.4,.17,10.71,0,19.39-1.9,19.39-4.25,0-.5-.41-.97-1.13-1.42Z"/>
    <g>
      <path class="cls-1" d="M404.48,73.62h-18c-2.88,2.42-9.81,4.13-17.93,4.13s-15.05-1.71-17.93-4.13h-12.35c-2.88,2.42-9.81,4.13-17.93,4.13s-15.05-1.71-17.93-4.13h-18c-4.44,0-8.04,3.6-8.04,8.04s3.6,8.04,8.04,8.04h120.07c4.44,0,8.04-3.6,8.04-8.04s-3.6-8.04-8.04-8.04Z"/>
      <g>
        <path class="cls-1" d="M365.82,5.68l-36.61-4.38c-23.07-2.76-44.01,13.7-46.77,36.77h0c-.62,5.18,3.08,9.89,8.26,10.51l101.38,12.14c5.18,.62,9.89-3.08,10.51-8.26h0c2.76-23.07-13.7-44.01-36.77-46.77Zm-56,12.1c-1.44,.1-2.71-.14-2.83-.52-.12-.39,.95-.78,2.39-.88,1.44-.1,2.71,.14,2.83,.52,.12,.39-.95,.78-2.39,.88Zm5.94-4.43c-1.44,.1-2.71-.14-2.83-.52-.12-.39,.95-.78,2.39-.88,1.44-.1,2.71,.14,2.83,.52,.12,.39-.95,.78-2.39,.88Zm7.28,5.91c-1.44,.1-2.71-.14-2.83-.52-.12-.39,.95-.78,2.39-.88,1.44-.1,2.71,.14,2.83,.52,.12,.39-.95,.78-2.39,.88Zm5.02-4.37c-1.44,.1-2.71-.14-2.83-.52-.12-.39,.95-.78,2.39-.88,1.44-.1,2.71,.14,2.83,.52,.12,.39-.95,.78-2.39,.88Z"/>
        <path class="cls-1" d="M278.94,35.8s-9.45,14.18,24.58,17.02c34.04,2.84,76.48,7.97,76.48,7.97,0,0-33.94-2.3-41.5-1.35-7.56,.95-26.17,3.65-31.52,1.35-5.35-2.3-9.23,.41-20.05,0-10.82-.41-13.1-8.55-10.07-12.04s-6.42-8.22,2.09-12.94Z"/>
      </g>
    </g>
    <g>
      <path class="cls-1" d="M318.89,105.76h-30.83c-2.78,0-5.03,2.25-5.03,5.03,0,12.36,10.02,22.39,22.39,22.39h58.91c-11.5-13.44-29.01-22.01-45.44-27.42Z"/>
      <path class="cls-1" d="M382.55,132.63c8.02-1.8,14.4-7.9,16.62-15.75-4.88,5.51-11.18,11.18-16.62,15.75Z"/>
    </g>
    <path class="cls-2" d="M283.97,94.42s66.52,4.75,87.23,41.6c0,0,48.64-35.66,29.15-41.6h-116.39Z"/>
  </g>
  <g>
    <g>
      <path class="cls-4" d="M822.03,82.25h-132.77c-.72,.44-1.13,.92-1.13,1.42,0,2.35,8.67,4.25,19.36,4.25,1.87,0,3.68-.06,5.39-.17,2.22,2.82,9.73,4.89,18.68,4.89s16.46-2.08,18.68-4.89c1.71,.11,3.52,.17,5.39,.17s3.68-.06,5.39-.17c2.22,2.82,9.73,4.89,18.68,4.89s16.46-2.08,18.68-4.89c1.71,.11,3.52,.17,5.39,.17,10.69,0,19.36-1.9,19.36-4.25,0-.5-.41-.97-1.13-1.42Z"/>
      <g>
        <path class="cls-3" d="M727.19,84.49h-10.53s1.03,4.68,5.61,4.68c0,0-.39-2.77,4.93-4.68Z"/>
        <path class="cls-3" d="M776.29,84.49h-10.53s1.03,4.68,5.61,4.68c0,0-.39-2.77,4.93-4.68Z"/>
      </g>
    </g>
    <g>
      <path class="cls-4" d="M815.83,92.98h-17.98c-2.88,2.42-9.79,4.12-17.91,4.12s-15.03-1.71-17.91-4.12h-12.34c-2.88,2.42-9.79,4.12-17.91,4.12s-15.03-1.71-17.91-4.12h-17.98c-4.43,0-8.03,3.59-8.03,8.03s3.59,8.03,8.03,8.03h119.91c4.43,0,8.03-3.59,8.03-8.03s-3.59-8.03-8.03-8.03Z"/>
      <g>
        <path class="cls-4" d="M777.22,25.14l-36.56-4.38c-23.04-2.76-43.95,13.68-46.71,36.72h0c-.62,5.18,3.08,9.88,8.25,10.5l101.25,12.12c5.18,.62,9.88-3.08,10.5-8.25h0c2.76-23.04-13.68-43.95-36.72-46.71Zm-55.93,12.09c-1.44,.1-2.71-.14-2.83-.52-.12-.39,.95-.78,2.39-.87,1.44-.1,2.71,.14,2.83,.52,.12,.39-.95,.78-2.39,.87Zm5.93-4.42c-1.44,.1-2.71-.14-2.83-.52-.12-.39,.95-.78,2.39-.87,1.44-.1,2.71,.14,2.83,.52,.12,.39-.95,.78-2.39,.87Zm7.27,5.9c-1.44,.1-2.71-.14-2.83-.52-.12-.39,.95-.78,2.39-.87,1.44-.1,2.71,.14,2.83,.52,.12,.39-.95,.78-2.39,.87Zm5.01-4.36c-1.44,.1-2.71-.14-2.83-.52-.12-.39,.95-.78,2.39-.87,1.44-.1,2.71,.14,2.83,.52,.12,.39-.95,.78-2.39,.87Z"/>
        <path class="cls-4" d="M690.45,55.22s-9.44,14.16,24.55,17c33.99,2.83,76.38,7.96,76.38,7.96,0,0-33.89-2.29-41.45-1.35-7.55,.94-26.14,3.64-31.48,1.35-5.34-2.29-9.22,.41-20.03,0-10.81-.41-13.09-8.54-10.06-12.03s-6.42-8.21,2.08-12.93Z"/>
      </g>
    </g>
    <g>
      <g>
        <path class="cls-4" d="M730.35,125.09h-30.79c-2.77,0-5.02,2.25-5.02,5.02,0,12.35,10.01,22.36,22.36,22.36h58.84c-11.48-13.43-28.97-21.98-45.38-27.38Z"/>
        <path class="cls-4" d="M793.92,151.92c8.01-1.8,14.39-7.89,16.6-15.73-4.88,5.5-11.16,11.17-16.6,15.73Z"/>
      </g>
      <path class="cls-5" d="M695.48,113.76s66.44,4.75,87.12,41.54c0,0,48.58-35.61,29.11-41.54h-116.23Z"/>
    </g>
  </g>
  <g>
    <path class="cls-1" d="M684.98,62.87h-132.94c-.72,.44-1.13,.92-1.13,1.42,0,2.35,8.68,4.25,19.39,4.25,1.88,0,3.68-.06,5.4-.17,2.22,2.82,9.74,4.9,18.7,4.9s16.48-2.08,18.7-4.9c1.72,.11,3.52,.17,5.4,.17s3.68-.06,5.4-.17c2.22,2.82,9.74,4.9,18.7,4.9s16.48-2.08,18.7-4.9c1.72,.11,3.52,.17,5.4,.17,10.71,0,19.39-1.9,19.39-4.25,0-.5-.41-.97-1.13-1.42Z"/>
    <g>
      <path class="cls-1" d="M678.77,73.62h-18c-2.88,2.42-9.81,4.13-17.93,4.13s-15.05-1.71-17.93-4.13h-12.35c-2.88,2.42-9.81,4.13-17.93,4.13s-15.05-1.71-17.93-4.13h-18c-4.44,0-8.04,3.6-8.04,8.04s3.6,8.04,8.04,8.04h120.07c4.44,0,8.04-3.6,8.04-8.04s-3.6-8.04-8.04-8.04Z"/>
      <g>
        <path class="cls-1" d="M640.1,5.68l-36.61-4.38c-23.07-2.76-44.01,13.7-46.77,36.77h0c-.62,5.18,3.08,9.89,8.26,10.51l101.38,12.14c5.18,.62,9.89-3.08,10.51-8.26h0c2.76-23.07-13.7-44.01-36.77-46.77Zm-56,12.1c-1.44,.1-2.71-.14-2.83-.52-.12-.39,.95-.78,2.39-.88,1.44-.1,2.71,.14,2.83,.52,.12,.39-.95,.78-2.39,.88Zm5.94-4.43c-1.44,.1-2.71-.14-2.83-.52-.12-.39,.95-.78,2.39-.88,1.44-.1,2.71,.14,2.83,.52,.12,.39-.95,.78-2.39,.88Zm7.28,5.91c-1.44,.1-2.71-.14-2.83-.52-.12-.39,.95-.78,2.39-.88,1.44-.1,2.71,.14,2.83,.52,.12,.39-.95,.78-2.39,.88Zm5.02-4.37c-1.44,.1-2.71-.14-2.83-.52-.12-.39,.95-.78,2.39-.88,1.44-.1,2.71,.14,2.83,.52,.12,.39-.95,.78-2.39,.88Z"/>
        <path class="cls-1" d="M553.22,35.8s-9.45,14.18,24.58,17.02c34.04,2.84,76.48,7.97,76.48,7.97,0,0-33.94-2.3-41.5-1.35-7.56,.95-26.17,3.65-31.52,1.35-5.35-2.3-9.23,.41-20.05,0-10.82-.41-13.1-8.55-10.07-12.04s-6.42-8.22,2.09-12.94Z"/>
      </g>
    </g>
    <g>
      <path class="cls-1" d="M593.17,105.76h-30.83c-2.78,0-5.03,2.25-5.03,5.03,0,12.36,10.02,22.39,22.39,22.39h58.91c-11.5-13.44-29.01-22.01-45.44-27.42Z"/>
      <path class="cls-1" d="M656.83,132.63c8.02-1.8,14.4-7.9,16.62-15.75-4.88,5.51-11.18,11.18-16.62,15.75Z"/>
    </g>
    <path class="cls-2" d="M558.26,94.42s66.52,4.75,87.23,41.6c0,0,48.64-35.66,29.15-41.6h-116.39Z"/>
  </g>
  <g>
    <g>
      <path class="cls-4" d="M1096.32,82.25h-132.77c-.72,.44-1.13,.92-1.13,1.42,0,2.35,8.67,4.25,19.36,4.25,1.87,0,3.68-.06,5.39-.17,2.22,2.82,9.73,4.89,18.68,4.89s16.46-2.08,18.68-4.89c1.71,.11,3.52,.17,5.39,.17s3.68-.06,5.39-.17c2.22,2.82,9.73,4.89,18.68,4.89s16.46-2.08,18.68-4.89c1.71,.11,3.52,.17,5.39,.17,10.69,0,19.36-1.9,19.36-4.25,0-.5-.41-.97-1.13-1.42Z"/>
      <g>
        <path class="cls-3" d="M1001.47,84.49h-10.53s1.03,4.68,5.61,4.68c0,0-.39-2.77,4.93-4.68Z"/>
        <path class="cls-3" d="M1050.57,84.49h-10.53s1.03,4.68,5.61,4.68c0,0-.39-2.77,4.93-4.68Z"/>
      </g>
    </g>
    <g>
      <path class="cls-4" d="M1090.12,92.98h-17.98c-2.88,2.42-9.79,4.12-17.91,4.12s-15.03-1.71-17.91-4.12h-12.34c-2.88,2.42-9.79,4.12-17.91,4.12s-15.03-1.71-17.91-4.12h-17.98c-4.43,0-8.03,3.59-8.03,8.03s3.59,8.03,8.03,8.03h119.91c4.43,0,8.03-3.59,8.03-8.03s-3.59-8.03-8.03-8.03Z"/>
      <g>
        <path class="cls-4" d="M1051.5,25.14l-36.56-4.38c-23.04-2.76-43.95,13.68-46.71,36.72h0c-.62,5.18,3.08,9.88,8.25,10.5l101.25,12.12c5.18,.62,9.88-3.08,10.5-8.25h0c2.76-23.04-13.68-43.95-36.72-46.71Zm-55.93,12.09c-1.44,.1-2.71-.14-2.83-.52-.12-.39,.95-.78,2.39-.87,1.44-.1,2.71,.14,2.83,.52,.12,.39-.95,.78-2.39,.87Zm5.93-4.42c-1.44,.1-2.71-.14-2.83-.52-.12-.39,.95-.78,2.39-.87,1.44-.1,2.71,.14,2.83,.52,.12,.39-.95,.78-2.39,.87Zm7.27,5.9c-1.44,.1-2.71-.14-2.83-.52-.12-.39,.95-.78,2.39-.87,1.44-.1,2.71,.14,2.83,.52,.12,.39-.95,.78-2.39,.87Zm5.01-4.36c-1.44,.1-2.71-.14-2.83-.52-.12-.39,.95-.78,2.39-.87,1.44-.1,2.71,.14,2.83,.52,.12,.39-.95,.78-2.39,.87Z"/>
        <path class="cls-4" d="M964.74,55.22s-9.44,14.16,24.55,17c33.99,2.83,76.38,7.96,76.38,7.96,0,0-33.89-2.29-41.45-1.35-7.55,.94-26.14,3.64-31.48,1.35-5.34-2.29-9.22,.41-20.03,0-10.81-.41-13.09-8.54-10.06-12.03s-6.42-8.21,2.08-12.93Z"/>
      </g>
    </g>
    <g>
      <g>
        <path class="cls-4" d="M1004.63,125.09h-30.79c-2.77,0-5.02,2.25-5.02,5.02,0,12.35,10.01,22.36,22.36,22.36h58.84c-11.48-13.43-28.97-21.98-45.38-27.38Z"/>
        <path class="cls-4" d="M1068.21,151.92c8.01-1.8,14.39-7.89,16.6-15.73-4.88,5.5-11.16,11.17-16.6,15.73Z"/>
      </g>
      <path class="cls-5" d="M969.77,113.76s66.44,4.75,87.12,41.54c0,0,48.58-35.61,29.11-41.54h-116.23Z"/>
    </g>
  </g>
  <g>
    <path class="cls-1" d="M959.26,62.87h-132.94c-.72,.44-1.13,.92-1.13,1.42,0,2.35,8.68,4.25,19.39,4.25,1.88,0,3.68-.06,5.4-.17,2.22,2.82,9.74,4.9,18.7,4.9s16.48-2.08,18.7-4.9c1.72,.11,3.52,.17,5.4,.17s3.68-.06,5.4-.17c2.22,2.82,9.74,4.9,18.7,4.9s16.48-2.08,18.7-4.9c1.72,.11,3.52,.17,5.4,.17,10.71,0,19.39-1.9,19.39-4.25,0-.5-.41-.97-1.13-1.42Z"/>
    <g>
      <path class="cls-1" d="M953.05,73.62h-18c-2.88,2.42-9.81,4.13-17.93,4.13s-15.05-1.71-17.93-4.13h-12.35c-2.88,2.42-9.81,4.13-17.93,4.13s-15.05-1.71-17.93-4.13h-18c-4.44,0-8.04,3.6-8.04,8.04s3.6,8.04,8.04,8.04h120.07c4.44,0,8.04-3.6,8.04-8.04s-3.6-8.04-8.04-8.04Z"/>
      <g>
        <path class="cls-1" d="M914.39,5.68l-36.61-4.38c-23.07-2.76-44.01,13.7-46.77,36.77h0c-.62,5.18,3.08,9.89,8.26,10.51l101.38,12.14c5.18,.62,9.89-3.08,10.51-8.26h0c2.76-23.07-13.7-44.01-36.77-46.77Zm-56,12.1c-1.44,.1-2.71-.14-2.83-.52-.12-.39,.95-.78,2.39-.88,1.44-.1,2.71,.14,2.83,.52,.12,.39-.95,.78-2.39,.88Zm5.94-4.43c-1.44,.1-2.71-.14-2.83-.52-.12-.39,.95-.78,2.39-.88,1.44-.1,2.71,.14,2.83,.52,.12,.39-.95,.78-2.39,.88Zm7.28,5.91c-1.44,.1-2.71-.14-2.83-.52-.12-.39,.95-.78,2.39-.88,1.44-.1,2.71,.14,2.83,.52,.12,.39-.95,.78-2.39,.88Zm5.02-4.37c-1.44,.1-2.71-.14-2.83-.52-.12-.39,.95-.78,2.39-.88,1.44-.1,2.71,.14,2.83,.52,.12,.39-.95,.78-2.39,.88Z"/>
        <path class="cls-1" d="M827.51,35.8s-9.45,14.18,24.58,17.02c34.04,2.84,76.48,7.97,76.48,7.97,0,0-33.94-2.3-41.5-1.35-7.56,.95-26.17,3.65-31.52,1.35-5.35-2.3-9.23,.41-20.05,0-10.82-.41-13.1-8.55-10.07-12.04s-6.42-8.22,2.09-12.94Z"/>
      </g>
    </g>
    <g>
      <path class="cls-1" d="M867.46,105.76h-30.83c-2.78,0-5.03,2.25-5.03,5.03,0,12.36,10.02,22.39,22.39,22.39h58.91c-11.5-13.44-29.01-22.01-45.44-27.42Z"/>
      <path class="cls-1" d="M931.12,132.63c8.02-1.8,14.4-7.9,16.62-15.75-4.88,5.51-11.18,11.18-16.62,15.75Z"/>
    </g>
    <path class="cls-2" d="M832.54,94.42s66.52,4.75,87.23,41.6c0,0,48.64-35.66,29.15-41.6h-116.39Z"/>
  </g>
  <g>
    <path class="cls-1" d="M1233.55,62.87h-132.94c-.72,.44-1.13,.92-1.13,1.42,0,2.35,8.68,4.25,19.39,4.25,1.88,0,3.68-.06,5.4-.17,2.22,2.82,9.74,4.9,18.7,4.9s16.48-2.08,18.7-4.9c1.72,.11,3.52,.17,5.4,.17s3.68-.06,5.4-.17c2.22,2.82,9.74,4.9,18.7,4.9s16.48-2.08,18.7-4.9c1.72,.11,3.52,.17,5.4,.17,10.71,0,19.39-1.9,19.39-4.25,0-.5-.41-.97-1.13-1.42Z"/>
    <g>
      <path class="cls-1" d="M1227.34,73.62h-18c-2.88,2.42-9.81,4.13-17.93,4.13s-15.05-1.71-17.93-4.13h-12.35c-2.88,2.42-9.81,4.13-17.93,4.13s-15.05-1.71-17.93-4.13h-18c-4.44,0-8.04,3.6-8.04,8.04s3.6,8.04,8.04,8.04h120.07c4.44,0,8.04-3.6,8.04-8.04s-3.6-8.04-8.04-8.04Z"/>
      <g>
        <path class="cls-1" d="M1188.67,5.68l-36.61-4.38c-23.07-2.76-44.01,13.7-46.77,36.77h0c-.62,5.18,3.08,9.89,8.26,10.51l101.38,12.14c5.18,.62,9.89-3.08,10.51-8.26h0c2.76-23.07-13.7-44.01-36.77-46.77Zm-56,12.1c-1.44,.1-2.71-.14-2.83-.52-.12-.39,.95-.78,2.39-.88,1.44-.1,2.71,.14,2.83,.52,.12,.39-.95,.78-2.39,.88Zm5.94-4.43c-1.44,.1-2.71-.14-2.83-.52-.12-.39,.95-.78,2.39-.88,1.44-.1,2.71,.14,2.83,.52,.12,.39-.95,.78-2.39,.88Zm7.28,5.91c-1.44,.1-2.71-.14-2.83-.52-.12-.39,.95-.78,2.39-.88,1.44-.1,2.71,.14,2.83,.52,.12,.39-.95,.78-2.39,.88Zm5.02-4.37c-1.44,.1-2.71-.14-2.83-.52-.12-.39,.95-.78,2.39-.88,1.44-.1,2.71,.14,2.83,.52,.12,.39-.95,.78-2.39,.88Z"/>
        <path class="cls-1" d="M1101.79,35.8s-9.45,14.18,24.58,17.02c34.04,2.84,76.48,7.97,76.48,7.97,0,0-33.94-2.3-41.5-1.35-7.56,.95-26.17,3.65-31.52,1.35-5.35-2.3-9.23,.41-20.05,0-10.82-.41-13.1-8.55-10.07-12.04,3.03-3.49-6.42-8.22,2.09-12.94Z"/>
      </g>
    </g>
    <g>
      <path class="cls-1" d="M1141.74,105.76h-30.83c-2.78,0-5.03,2.25-5.03,5.03,0,12.36,10.02,22.39,22.39,22.39h58.91c-11.5-13.44-29.01-22.01-45.44-27.42Z"/>
      <path class="cls-1" d="M1205.4,132.63c8.02-1.8,14.4-7.9,16.62-15.75-4.88,5.51-11.18,11.18-16.62,15.75Z"/>
    </g>
    <path class="cls-2" d="M1106.83,94.42s66.52,4.75,87.23,41.6c0,0,48.64-35.66,29.15-41.6h-116.39Z"/>
  </g>
  <g>
    <g>
      <path class="cls-4" d="M1370.61,82.25h-132.77c-.72,.44-1.13,.92-1.13,1.42,0,2.35,8.67,4.25,19.36,4.25,1.87,0,3.68-.06,5.39-.17,2.22,2.82,9.73,4.89,18.68,4.89s16.46-2.08,18.68-4.89c1.71,.11,3.52,.17,5.39,.17s3.68-.06,5.39-.17c2.22,2.82,9.73,4.89,18.68,4.89s16.46-2.08,18.68-4.89c1.71,.11,3.52,.17,5.39,.17,10.69,0,19.36-1.9,19.36-4.25,0-.5-.41-.97-1.13-1.42Z"/>
      <g>
        <path class="cls-3" d="M1275.76,84.49h-10.53s1.03,4.68,5.61,4.68c0,0-.39-2.77,4.93-4.68Z"/>
        <path class="cls-3" d="M1324.86,84.49h-10.53s1.03,4.68,5.61,4.68c0,0-.39-2.77,4.93-4.68Z"/>
      </g>
    </g>
    <g>
      <path class="cls-4" d="M1364.4,92.98h-17.98c-2.88,2.42-9.79,4.12-17.91,4.12s-15.03-1.71-17.91-4.12h-12.34c-2.88,2.42-9.79,4.12-17.91,4.12s-15.03-1.71-17.91-4.12h-17.98c-4.43,0-8.03,3.59-8.03,8.03s3.59,8.03,8.03,8.03h119.91c4.43,0,8.03-3.59,8.03-8.03s-3.59-8.03-8.03-8.03Z"/>
      <g>
        <path class="cls-4" d="M1325.79,25.14l-36.56-4.38c-23.04-2.76-43.95,13.68-46.71,36.72h0c-.62,5.18,3.08,9.88,8.25,10.5l101.25,12.12c5.18,.62,9.88-3.08,10.5-8.25h0c2.76-23.04-13.68-43.95-36.72-46.71Zm-55.93,12.09c-1.44,.1-2.71-.14-2.83-.52-.12-.39,.95-.78,2.39-.87,1.44-.1,2.71,.14,2.83,.52,.12,.39-.95,.78-2.39,.87Zm5.93-4.42c-1.44,.1-2.71-.14-2.83-.52-.12-.39,.95-.78,2.39-.87,1.44-.1,2.71,.14,2.83,.52,.12,.39-.95,.78-2.39,.87Zm7.27,5.9c-1.44,.1-2.71-.14-2.83-.52-.12-.39,.95-.78,2.39-.87,1.44-.1,2.71,.14,2.83,.52,.12,.39-.95,.78-2.39,.87Zm5.01-4.36c-1.44,.1-2.71-.14-2.83-.52-.12-.39,.95-.78,2.39-.87,1.44-.1,2.71,.14,2.83,.52,.12,.39-.95,.78-2.39,.87Z"/>
        <path class="cls-4" d="M1239.02,55.22s-9.44,14.16,24.55,17c33.99,2.83,76.38,7.96,76.38,7.96,0,0-33.89-2.29-41.45-1.35-7.55,.94-26.14,3.64-31.48,1.35-5.34-2.29-9.22,.41-20.03,0-10.81-.41-13.09-8.54-10.06-12.03s-6.42-8.21,2.08-12.93Z"/>
      </g>
    </g>
    <g>
      <g>
        <path class="cls-4" d="M1278.92,125.09h-30.79c-2.77,0-5.02,2.25-5.02,5.02,0,12.35,10.01,22.36,22.36,22.36h58.84c-11.48-13.43-28.97-21.98-45.38-27.38Z"/>
        <path class="cls-4" d="M1342.49,151.92c8.01-1.8,14.39-7.89,16.6-15.73-4.88,5.5-11.16,11.17-16.6,15.73Z"/>
      </g>
      <path class="cls-5" d="M1244.05,113.76s66.44,4.75,87.12,41.54c0,0,48.58-35.61,29.11-41.54h-116.23Z"/>
    </g>
  </g>
  <g>
    <g>
      <path class="cls-4" d="M1644.89,82.25h-132.77c-.72,.44-1.13,.92-1.13,1.42,0,2.35,8.67,4.25,19.36,4.25,1.87,0,3.68-.06,5.39-.17,2.22,2.82,9.73,4.89,18.68,4.89s16.46-2.08,18.68-4.89c1.71,.11,3.52,.17,5.39,.17s3.68-.06,5.39-.17c2.22,2.82,9.73,4.89,18.68,4.89s16.46-2.08,18.68-4.89c1.71,.11,3.52,.17,5.39,.17,10.69,0,19.36-1.9,19.36-4.25,0-.5-.41-.97-1.13-1.42Z"/>
      <g>
        <path class="cls-3" d="M1550.05,84.49h-10.53s1.03,4.68,5.61,4.68c0,0-.39-2.77,4.93-4.68Z"/>
        <path class="cls-3" d="M1599.14,84.49h-10.53s1.03,4.68,5.61,4.68c0,0-.39-2.77,4.93-4.68Z"/>
      </g>
    </g>
    <g>
      <path class="cls-4" d="M1638.69,92.98h-17.98c-2.88,2.42-9.79,4.12-17.91,4.12s-15.03-1.71-17.91-4.12h-12.34c-2.88,2.42-9.79,4.12-17.91,4.12s-15.03-1.71-17.91-4.12h-17.98c-4.43,0-8.03,3.59-8.03,8.03s3.59,8.03,8.03,8.03h119.91c4.43,0,8.03-3.59,8.03-8.03s-3.59-8.03-8.03-8.03Z"/>
      <g>
        <path class="cls-4" d="M1600.07,25.14l-36.56-4.38c-23.04-2.76-43.95,13.68-46.71,36.72h0c-.62,5.18,3.08,9.88,8.25,10.5l101.25,12.12c5.18,.62,9.88-3.08,10.5-8.25h0c2.76-23.04-13.68-43.95-36.72-46.71Zm-55.93,12.09c-1.44,.1-2.71-.14-2.83-.52-.12-.39,.95-.78,2.39-.87,1.44-.1,2.71,.14,2.83,.52,.12,.39-.95,.78-2.39,.87Zm5.93-4.42c-1.44,.1-2.71-.14-2.83-.52-.12-.39,.95-.78,2.39-.87,1.44-.1,2.71,.14,2.83,.52,.12,.39-.95,.78-2.39,.87Zm7.27,5.9c-1.44,.1-2.71-.14-2.83-.52-.12-.39,.95-.78,2.39-.87,1.44-.1,2.71,.14,2.83,.52,.12,.39-.95,.78-2.39,.87Zm5.01-4.36c-1.44,.1-2.71-.14-2.83-.52-.12-.39,.95-.78,2.39-.87,1.44-.1,2.71,.14,2.83,.52,.12,.39-.95,.78-2.39,.87Z"/>
        <path class="cls-4" d="M1513.31,55.22s-9.44,14.16,24.55,17c33.99,2.83,76.38,7.96,76.38,7.96,0,0-33.89-2.29-41.45-1.35-7.55,.94-26.14,3.64-31.48,1.35-5.34-2.29-9.22,.41-20.03,0-10.81-.41-13.09-8.54-10.06-12.03s-6.42-8.21,2.08-12.93Z"/>
      </g>
    </g>
    <g>
      <g>
        <path class="cls-4" d="M1553.21,125.09h-30.79c-2.77,0-5.02,2.25-5.02,5.02,0,12.35,10.01,22.36,22.36,22.36h58.84c-11.48-13.43-28.97-21.98-45.38-27.38Z"/>
        <path class="cls-4" d="M1616.78,151.92c8.01-1.8,14.39-7.89,16.6-15.73-4.88,5.5-11.16,11.17-16.6,15.73Z"/>
      </g>
      <path class="cls-5" d="M1518.34,113.76s66.44,4.75,87.12,41.54c0,0,48.58-35.61,29.11-41.54h-116.23Z"/>
    </g>
  </g>
  <g>
    <path class="cls-1" d="M1507.84,62.87h-132.94c-.72,.44-1.13,.92-1.13,1.42,0,2.35,8.68,4.25,19.39,4.25,1.88,0,3.68-.06,5.4-.17,2.22,2.82,9.74,4.9,18.7,4.9s16.48-2.08,18.7-4.9c1.72,.11,3.52,.17,5.4,.17s3.68-.06,5.4-.17c2.22,2.82,9.74,4.9,18.7,4.9s16.48-2.08,18.7-4.9c1.72,.11,3.52,.17,5.4,.17,10.71,0,19.39-1.9,19.39-4.25,0-.5-.41-.97-1.13-1.42Z"/>
    <g>
      <path class="cls-1" d="M1501.63,73.62h-18c-2.88,2.42-9.81,4.13-17.93,4.13s-15.05-1.71-17.93-4.13h-12.35c-2.88,2.42-9.81,4.13-17.93,4.13s-15.05-1.71-17.93-4.13h-18c-4.44,0-8.04,3.6-8.04,8.04s3.6,8.04,8.04,8.04h120.07c4.44,0,8.04-3.6,8.04-8.04s-3.6-8.04-8.04-8.04Z"/>
      <g>
        <path class="cls-1" d="M1462.96,5.68l-36.61-4.38c-23.07-2.76-44.01,13.7-46.77,36.77h0c-.62,5.18,3.08,9.89,8.26,10.51l101.38,12.14c5.18,.62,9.89-3.08,10.51-8.26h0c2.76-23.07-13.7-44.01-36.77-46.77Zm-56,12.1c-1.44,.1-2.71-.14-2.83-.52-.12-.39,.95-.78,2.39-.88,1.44-.1,2.71,.14,2.83,.52,.12,.39-.95,.78-2.39,.88Zm5.94-4.43c-1.44,.1-2.71-.14-2.83-.52-.12-.39,.95-.78,2.39-.88,1.44-.1,2.71,.14,2.83,.52,.12,.39-.95,.78-2.39,.88Zm7.28,5.91c-1.44,.1-2.71-.14-2.83-.52-.12-.39,.95-.78,2.39-.88,1.44-.1,2.71,.14,2.83,.52,.12,.39-.95,.78-2.39,.88Zm5.02-4.37c-1.44,.1-2.71-.14-2.83-.52-.12-.39,.95-.78,2.39-.88,1.44-.1,2.71,.14,2.83,.52,.12,.39-.95,.78-2.39,.88Z"/>
        <path class="cls-1" d="M1376.08,35.8s-9.45,14.18,24.58,17.02c34.04,2.84,76.48,7.97,76.48,7.97,0,0-33.94-2.3-41.5-1.35-7.56,.95-26.17,3.65-31.52,1.35-5.35-2.3-9.23,.41-20.05,0-10.82-.41-13.1-8.55-10.07-12.04,3.03-3.49-6.42-8.22,2.09-12.94Z"/>
      </g>
    </g>
    <g>
      <path class="cls-1" d="M1416.03,105.76h-30.83c-2.78,0-5.03,2.25-5.03,5.03,0,12.36,10.02,22.39,22.39,22.39h58.91c-11.5-13.44-29.01-22.01-45.44-27.42Z"/>
      <path class="cls-1" d="M1479.69,132.63c8.02-1.8,14.4-7.9,16.62-15.75-4.88,5.51-11.18,11.18-16.62,15.75Z"/>
    </g>
    <path class="cls-2" d="M1381.12,94.42s66.52,4.75,87.23,41.6c0,0,48.64-35.66,29.15-41.6h-116.39Z"/>
  </g>
  <g>
    <path class="cls-1" d="M1782.12,62.87h-132.94c-.72,.44-1.13,.92-1.13,1.42,0,2.35,8.68,4.25,19.39,4.25,1.88,0,3.68-.06,5.4-.17,2.22,2.82,9.74,4.9,18.7,4.9s16.48-2.08,18.7-4.9c1.72,.11,3.52,.17,5.4,.17s3.68-.06,5.4-.17c2.22,2.82,9.74,4.9,18.7,4.9s16.48-2.08,18.7-4.9c1.72,.11,3.52,.17,5.4,.17,10.71,0,19.39-1.9,19.39-4.25,0-.5-.41-.97-1.13-1.42Z"/>
    <g>
      <path class="cls-1" d="M1775.91,73.62h-18c-2.88,2.42-9.81,4.13-17.93,4.13s-15.05-1.71-17.93-4.13h-12.35c-2.88,2.42-9.81,4.13-17.93,4.13s-15.05-1.71-17.93-4.13h-18c-4.44,0-8.04,3.6-8.04,8.04s3.6,8.04,8.04,8.04h120.07c4.44,0,8.04-3.6,8.04-8.04s-3.6-8.04-8.04-8.04Z"/>
      <g>
        <path class="cls-1" d="M1737.24,5.68l-36.61-4.38c-23.07-2.76-44.01,13.7-46.77,36.77h0c-.62,5.18,3.08,9.89,8.26,10.51l101.38,12.14c5.18,.62,9.89-3.08,10.51-8.26h0c2.76-23.07-13.7-44.01-36.77-46.77Zm-56,12.1c-1.44,.1-2.71-.14-2.83-.52-.12-.39,.95-.78,2.39-.88,1.44-.1,2.71,.14,2.83,.52,.12,.39-.95,.78-2.39,.88Zm5.94-4.43c-1.44,.1-2.71-.14-2.83-.52-.12-.39,.95-.78,2.39-.88,1.44-.1,2.71,.14,2.83,.52,.12,.39-.95,.78-2.39,.88Zm7.28,5.91c-1.44,.1-2.71-.14-2.83-.52-.12-.39,.95-.78,2.39-.88,1.44-.1,2.71,.14,2.83,.52,.12,.39-.95,.78-2.39,.88Zm5.02-4.37c-1.44,.1-2.71-.14-2.83-.52-.12-.39,.95-.78,2.39-.88,1.44-.1,2.71,.14,2.83,.52,.12,.39-.95,.78-2.39,.88Z"/>
        <path class="cls-1" d="M1650.36,35.8s-9.45,14.18,24.58,17.02c34.04,2.84,76.48,7.97,76.48,7.97,0,0-33.94-2.3-41.5-1.35-7.56,.95-26.17,3.65-31.52,1.35-5.35-2.3-9.23,.41-20.05,0-10.82-.41-13.1-8.55-10.07-12.04,3.03-3.49-6.42-8.22,2.09-12.94Z"/>
      </g>
    </g>
    <g>
      <path class="cls-1" d="M1690.32,105.76h-30.83c-2.78,0-5.03,2.25-5.03,5.03,0,12.36,10.02,22.39,22.39,22.39h58.91c-11.5-13.44-29.01-22.01-45.44-27.42Z"/>
      <path class="cls-1" d="M1753.97,132.63c8.02-1.8,14.4-7.9,16.62-15.75-4.88,5.51-11.18,11.18-16.62,15.75Z"/>
    </g>
    <path class="cls-2" d="M1655.4,94.42s66.52,4.75,87.23,41.6c0,0,48.64-35.66,29.15-41.6h-116.39Z"/>
  </g>
  <g>
    <g>
      <path class="cls-4" d="M1919.18,82.25h-132.77c-.72,.44-1.13,.92-1.13,1.42,0,2.35,8.67,4.25,19.36,4.25,1.87,0,3.68-.06,5.39-.17,2.22,2.82,9.73,4.89,18.68,4.89s16.46-2.08,18.68-4.89c1.71,.11,3.52,.17,5.39,.17s3.68-.06,5.39-.17c2.22,2.82,9.73,4.89,18.68,4.89s16.46-2.08,18.68-4.89c1.71,.11,3.52,.17,5.39,.17,10.69,0,19.36-1.9,19.36-4.25,0-.5-.41-.97-1.13-1.42Z"/>
      <g>
        <path class="cls-3" d="M1824.33,84.49h-10.53s1.03,4.68,5.61,4.68c0,0-.39-2.77,4.93-4.68Z"/>
        <path class="cls-3" d="M1873.43,84.49h-10.53s1.03,4.68,5.61,4.68c0,0-.39-2.77,4.93-4.68Z"/>
      </g>
    </g>
    <g>
      <path class="cls-4" d="M1912.97,92.98h-17.98c-2.88,2.42-9.79,4.12-17.91,4.12s-15.03-1.71-17.91-4.12h-12.34c-2.88,2.42-9.79,4.12-17.91,4.12s-15.03-1.71-17.91-4.12h-17.98c-4.43,0-8.03,3.59-8.03,8.03s3.59,8.03,8.03,8.03h119.91c4.43,0,8.03-3.59,8.03-8.03s-3.59-8.03-8.03-8.03Z"/>
      <g>
        <path class="cls-4" d="M1874.36,25.14l-36.56-4.38c-23.04-2.76-43.95,13.68-46.71,36.72h0c-.62,5.18,3.08,9.88,8.25,10.5l101.25,12.12c5.18,.62,9.88-3.08,10.5-8.25h0c2.76-23.04-13.68-43.95-36.72-46.71Zm-55.93,12.09c-1.44,.1-2.71-.14-2.83-.52-.12-.39,.95-.78,2.39-.87,1.44-.1,2.71,.14,2.83,.52,.12,.39-.95,.78-2.39,.87Zm5.93-4.42c-1.44,.1-2.71-.14-2.83-.52-.12-.39,.95-.78,2.39-.87,1.44-.1,2.71,.14,2.83,.52,.12,.39-.95,.78-2.39,.87Zm7.27,5.9c-1.44,.1-2.71-.14-2.83-.52-.12-.39,.95-.78,2.39-.87,1.44-.1,2.71,.14,2.83,.52,.12,.39-.95,.78-2.39,.87Zm5.01-4.36c-1.44,.1-2.71-.14-2.83-.52-.12-.39,.95-.78,2.39-.87,1.44-.1,2.71,.14,2.83,.52,.12,.39-.95,.78-2.39,.87Z"/>
        <path class="cls-4" d="M1787.59,55.22s-9.44,14.16,24.55,17c33.99,2.83,76.38,7.96,76.38,7.96,0,0-33.89-2.29-41.45-1.35-7.55,.94-26.14,3.64-31.48,1.35-5.34-2.29-9.22,.41-20.03,0-10.81-.41-13.09-8.54-10.06-12.03s-6.42-8.21,2.08-12.93Z"/>
      </g>
    </g>
    <g>
      <g>
        <path class="cls-4" d="M1827.49,125.09h-30.79c-2.77,0-5.02,2.25-5.02,5.02,0,12.35,10.01,22.36,22.36,22.36h58.84c-11.48-13.43-28.97-21.98-45.38-27.38Z"/>
        <path class="cls-4" d="M1891.07,151.92c8.01-1.8,14.39-7.89,16.6-15.73-4.88,5.5-11.16,11.17-16.6,15.73Z"/>
      </g>
      <path class="cls-5" d="M1792.62,113.76s66.44,4.75,87.12,41.54c0,0,48.58-35.61,29.11-41.54h-116.23Z"/>
    </g>
  </g>
</svg>