<?xml version="1.0" encoding="UTF-8"?>
<svg id="Layer_1" data-name="Layer 1" xmlns="http://www.w3.org/2000/svg" viewBox="0 0 1922.59 40.95">
  <defs>
    <style>
      .cls-1 {
        stroke: #053b9f;
      }

      .cls-1, .cls-2 {
        fill: none;
        stroke-miterlimit: 10;
        stroke-width: 2px;
      }

      .cls-2 {
        stroke: #e0e621;
      }
    </style>
  </defs>
  <g>
    <path class="cls-1" d="M32.21,18.7v20.36h-14.92C5.81,39.07,1,32.65,1,20.03S5.81,1,17.28,1c5.33,0,9.31,.58,13.53,1.55l-.7,12.04c-3.73-.49-7.5-.97-11.23-.97-3.49,0-5.68,1.99-5.68,6.42s2.2,6.42,5.68,6.42h2.86v-7.75h10.46Z"/>
    <path class="cls-1" d="M44.93,13.17v2.66h14.65v8.85h-14.65v2.66h15.17v11.73h-26.5V1.88h26.33V13.17h-14.99Z"/>
    <path class="cls-1" d="M61.49,1.88h12.2l7.67,17.93V1.88h10.81V39.07h-12.21l-7.67-17.93v17.93h-10.81V1.88Z"/>
    <path class="cls-1" d="M101.77,39.07V15.16h-8.37V1.88h28.59V15.16h-8.37v23.9h-11.86Z"/>
    <path class="cls-1" d="M148.32,39.07h-25.11V1.88h11.86V26.23h13.25v12.84Z"/>
    <path class="cls-1" d="M161.04,13.17v2.66h14.65v8.85h-14.65v2.66h15.17v11.73h-26.5V1.88h26.33V13.17h-14.99Z"/>
    <path class="cls-2" d="M184.58,39.07V1.88h18.52c8.4,0,11.93,3.19,11.93,9.43,0,3.72-1.39,6.42-4.22,8.15,3.56,1.64,5.68,5.09,5.68,9.16,0,7.08-3.21,10.45-13.39,10.45h-5.79l-1.05-10.84h5.54c2.37,0,3.35-.71,3.35-2.21s-.98-2.21-3.35-2.21h-5.89v15.27h-11.33Zm17.05-23.02c1.88,0,2.75-.71,2.75-1.99s-.87-1.99-2.75-1.99h-5.72v3.98h5.72Z"/>
    <path class="cls-2" d="M217.53,1.88h11.86V22.56c0,3.05,1.15,4.34,3.49,4.34s3.49-1.28,3.49-4.34V1.88h11.86V24.46c0,10.18-5.58,15.49-15.34,15.49s-15.34-5.31-15.34-15.49V1.88Z"/>
    <path class="cls-2" d="M261.46,16.8h2.69c2.79,0,4.46-.71,4.46-2.17s-1.67-2.12-4.46-2.12h-1.99l1.05-10.62h2.54c10.95,0,14.89,4.69,14.89,12.75,0,4.96-1.46,8.63-5.16,10.76l6.56,13.68h-14.3l-3.83-11.64h-2.44v11.64h-11.86V1.88h11.86v14.92Z"/>
    <path class="cls-2" d="M313.59,18.7v20.36h-14.92c-11.47,0-16.28-6.42-16.28-19.03s4.81-19.03,16.28-19.03c5.33,0,9.31,.58,13.53,1.55l-.7,12.04c-3.73-.49-7.5-.97-11.23-.97-3.49,0-5.68,1.99-5.68,6.42s2.2,6.42,5.68,6.42h2.86v-7.75h10.46Z"/>
    <path class="cls-2" d="M326.32,13.17v2.66h14.65v8.85h-14.65v2.66h15.17v11.73h-26.5V1.88h26.33V13.17h-14.99Z"/>
    <path class="cls-2" d="M354.73,16.8h2.69c2.79,0,4.46-.71,4.46-2.17s-1.67-2.12-4.46-2.12h-1.99l1.05-10.62h2.54c10.95,0,14.89,4.69,14.89,12.75,0,4.96-1.46,8.63-5.16,10.76l6.56,13.68h-14.3l-3.83-11.64h-2.44v11.64h-11.86V1.88h11.86v14.92Z"/>
  </g>
  <g>
    <path class="cls-1" d="M418.63,18.7v20.36h-14.92c-11.47,0-16.28-6.42-16.28-19.03s4.81-19.03,16.28-19.03c5.33,0,9.31,.58,13.53,1.55l-.7,12.04c-3.73-.49-7.5-.97-11.23-.97-3.49,0-5.68,1.99-5.68,6.42s2.2,6.42,5.68,6.42h2.86v-7.75h10.46Z"/>
    <path class="cls-1" d="M431.36,13.17v2.66h14.65v8.85h-14.65v2.66h15.17v11.73h-26.5V1.88h26.33V13.17h-14.99Z"/>
    <path class="cls-1" d="M447.92,1.88h12.2l7.67,17.93V1.88h10.81V39.07h-12.21l-7.67-17.93v17.93h-10.81V1.88Z"/>
    <path class="cls-1" d="M488.19,39.07V15.16h-8.37V1.88h28.59V15.16h-8.37v23.9h-11.86Z"/>
    <path class="cls-1" d="M534.74,39.07h-25.11V1.88h11.86V26.23h13.25v12.84Z"/>
    <path class="cls-1" d="M547.47,13.17v2.66h14.65v8.85h-14.65v2.66h15.17v11.73h-26.5V1.88h26.33V13.17h-14.99Z"/>
    <path class="cls-2" d="M571,39.07V1.88h18.52c8.4,0,11.93,3.19,11.93,9.43,0,3.72-1.39,6.42-4.22,8.15,3.56,1.64,5.68,5.09,5.68,9.16,0,7.08-3.21,10.45-13.39,10.45h-5.79l-1.05-10.84h5.54c2.37,0,3.35-.71,3.35-2.21s-.98-2.21-3.35-2.21h-5.89v15.27h-11.33Zm17.05-23.02c1.88,0,2.75-.71,2.75-1.99s-.87-1.99-2.75-1.99h-5.72v3.98h5.72Z"/>
    <path class="cls-2" d="M603.95,1.88h11.86V22.56c0,3.05,1.15,4.34,3.49,4.34s3.49-1.28,3.49-4.34V1.88h11.86V24.46c0,10.18-5.58,15.49-15.34,15.49s-15.34-5.31-15.34-15.49V1.88Z"/>
    <path class="cls-2" d="M647.89,16.8h2.69c2.79,0,4.46-.71,4.46-2.17s-1.67-2.12-4.46-2.12h-1.99l1.05-10.62h2.54c10.95,0,14.89,4.69,14.89,12.75,0,4.96-1.46,8.63-5.16,10.76l6.56,13.68h-14.3l-3.83-11.64h-2.44v11.64h-11.86V1.88h11.86v14.92Z"/>
    <path class="cls-2" d="M700.01,18.7v20.36h-14.92c-11.47,0-16.28-6.42-16.28-19.03s4.81-19.03,16.28-19.03c5.33,0,9.31,.58,13.53,1.55l-.7,12.04c-3.73-.49-7.5-.97-11.23-.97-3.49,0-5.68,1.99-5.68,6.42s2.2,6.42,5.68,6.42h2.86v-7.75h10.46Z"/>
    <path class="cls-2" d="M712.74,13.17v2.66h14.65v8.85h-14.65v2.66h15.17v11.73h-26.5V1.88h26.33V13.17h-14.99Z"/>
    <path class="cls-2" d="M741.16,16.8h2.69c2.79,0,4.46-.71,4.46-2.17s-1.67-2.12-4.46-2.12h-1.99l1.05-10.62h2.54c10.95,0,14.89,4.69,14.89,12.75,0,4.96-1.46,8.63-5.16,10.76l6.56,13.68h-14.3l-3.83-11.64h-2.44v11.64h-11.86V1.88h11.86v14.92Z"/>
  </g>
  <g>
    <path class="cls-1" d="M805.06,18.7v20.36h-14.92c-11.47,0-16.28-6.42-16.28-19.03s4.81-19.03,16.28-19.03c5.33,0,9.31,.58,13.53,1.55l-.7,12.04c-3.73-.49-7.5-.97-11.23-.97-3.49,0-5.68,1.99-5.68,6.42s2.2,6.42,5.68,6.42h2.86v-7.75h10.46Z"/>
    <path class="cls-1" d="M817.78,13.17v2.66h14.65v8.85h-14.65v2.66h15.17v11.73h-26.5V1.88h26.33V13.17h-14.99Z"/>
    <path class="cls-1" d="M834.34,1.88h12.2l7.67,17.93V1.88h10.81V39.07h-12.21l-7.67-17.93v17.93h-10.81V1.88Z"/>
    <path class="cls-1" d="M874.62,39.07V15.16h-8.37V1.88h28.59V15.16h-8.37v23.9h-11.86Z"/>
    <path class="cls-1" d="M921.16,39.07h-25.11V1.88h11.86V26.23h13.25v12.84Z"/>
    <path class="cls-1" d="M933.89,13.17v2.66h14.65v8.85h-14.65v2.66h15.17v11.73h-26.5V1.88h26.33V13.17h-14.99Z"/>
    <path class="cls-2" d="M957.43,39.07V1.88h18.52c8.4,0,11.93,3.19,11.93,9.43,0,3.72-1.39,6.42-4.22,8.15,3.56,1.64,5.68,5.09,5.68,9.16,0,7.08-3.21,10.45-13.39,10.45h-5.79l-1.05-10.84h5.54c2.37,0,3.35-.71,3.35-2.21s-.98-2.21-3.35-2.21h-5.89v15.27h-11.33Zm17.05-23.02c1.88,0,2.75-.71,2.75-1.99s-.87-1.99-2.75-1.99h-5.72v3.98h5.72Z"/>
    <path class="cls-2" d="M990.37,1.88h11.86V22.56c0,3.05,1.15,4.34,3.49,4.34s3.49-1.28,3.49-4.34V1.88h11.86V24.46c0,10.18-5.58,15.49-15.34,15.49s-15.34-5.31-15.34-15.49V1.88Z"/>
    <path class="cls-2" d="M1034.31,16.8h2.69c2.79,0,4.46-.71,4.46-2.17s-1.67-2.12-4.46-2.12h-1.99l1.05-10.62h2.54c10.95,0,14.89,4.69,14.89,12.75,0,4.96-1.46,8.63-5.16,10.76l6.56,13.68h-14.3l-3.83-11.64h-2.44v11.64h-11.86V1.88h11.86v14.92Z"/>
    <path class="cls-2" d="M1086.44,18.7v20.36h-14.92c-11.47,0-16.28-6.42-16.28-19.03s4.81-19.03,16.28-19.03c5.33,0,9.31,.58,13.53,1.55l-.7,12.04c-3.73-.49-7.5-.97-11.23-.97-3.49,0-5.68,1.99-5.68,6.42s2.2,6.42,5.68,6.42h2.86v-7.75h10.46Z"/>
    <path class="cls-2" d="M1099.16,13.17v2.66h14.65v8.85h-14.65v2.66h15.17v11.73h-26.5V1.88h26.33V13.17h-14.99Z"/>
    <path class="cls-2" d="M1127.58,16.8h2.69c2.79,0,4.46-.71,4.46-2.17s-1.67-2.12-4.46-2.12h-1.99l1.05-10.62h2.54c10.95,0,14.89,4.69,14.89,12.75,0,4.96-1.46,8.63-5.16,10.76l6.56,13.68h-14.3l-3.83-11.64h-2.44v11.64h-11.86V1.88h11.86v14.92Z"/>
  </g>
  <g>
    <path class="cls-1" d="M1191.48,18.7v20.36h-14.92c-11.47,0-16.28-6.42-16.28-19.03s4.81-19.03,16.28-19.03c5.33,0,9.31,.58,13.53,1.55l-.7,12.04c-3.73-.49-7.5-.97-11.23-.97-3.49,0-5.68,1.99-5.68,6.42s2.2,6.42,5.68,6.42h2.86v-7.75h10.46Z"/>
    <path class="cls-1" d="M1204.2,13.17v2.66h14.65v8.85h-14.65v2.66h15.17v11.73h-26.5V1.88h26.33V13.17h-14.99Z"/>
    <path class="cls-1" d="M1220.77,1.88h12.2l7.67,17.93V1.88h10.81V39.07h-12.21l-7.67-17.93v17.93h-10.81V1.88Z"/>
    <path class="cls-1" d="M1261.04,39.07V15.16h-8.37V1.88h28.59V15.16h-8.37v23.9h-11.86Z"/>
    <path class="cls-1" d="M1307.59,39.07h-25.11V1.88h11.86V26.23h13.25v12.84Z"/>
    <path class="cls-1" d="M1320.31,13.17v2.66h14.65v8.85h-14.65v2.66h15.17v11.73h-26.5V1.88h26.33V13.17h-14.99Z"/>
    <path class="cls-2" d="M1343.85,39.07V1.88h18.52c8.4,0,11.93,3.19,11.93,9.43,0,3.72-1.39,6.42-4.22,8.15,3.56,1.64,5.68,5.09,5.68,9.16,0,7.08-3.21,10.45-13.39,10.45h-5.79l-1.05-10.84h5.54c2.37,0,3.35-.71,3.35-2.21s-.98-2.21-3.35-2.21h-5.89v15.27h-11.33Zm17.05-23.02c1.88,0,2.75-.71,2.75-1.99s-.87-1.99-2.75-1.99h-5.72v3.98h5.72Z"/>
    <path class="cls-2" d="M1376.8,1.88h11.86V22.56c0,3.05,1.15,4.34,3.49,4.34s3.49-1.28,3.49-4.34V1.88h11.86V24.46c0,10.18-5.58,15.49-15.34,15.49s-15.34-5.31-15.34-15.49V1.88Z"/>
    <path class="cls-2" d="M1420.73,16.8h2.69c2.79,0,4.46-.71,4.46-2.17s-1.67-2.12-4.46-2.12h-1.99l1.05-10.62h2.54c10.95,0,14.89,4.69,14.89,12.75,0,4.96-1.46,8.63-5.16,10.76l6.56,13.68h-14.3l-3.83-11.64h-2.44v11.64h-11.86V1.88h11.86v14.92Z"/>
    <path class="cls-2" d="M1472.86,18.7v20.36h-14.92c-11.47,0-16.28-6.42-16.28-19.03s4.81-19.03,16.28-19.03c5.33,0,9.31,.58,13.53,1.55l-.7,12.04c-3.73-.49-7.5-.97-11.23-.97-3.49,0-5.68,1.99-5.68,6.42s2.2,6.42,5.68,6.42h2.86v-7.75h10.46Z"/>
    <path class="cls-2" d="M1485.59,13.17v2.66h14.65v8.85h-14.65v2.66h15.17v11.73h-26.5V1.88h26.33V13.17h-14.99Z"/>
    <path class="cls-2" d="M1514,16.8h2.69c2.79,0,4.46-.71,4.46-2.17s-1.67-2.12-4.46-2.12h-1.99l1.05-10.62h2.54c10.95,0,14.89,4.69,14.89,12.75,0,4.96-1.46,8.63-5.16,10.76l6.56,13.68h-14.3l-3.83-11.64h-2.44v11.64h-11.86V1.88h11.86v14.92Z"/>
  </g>
  <g>
    <path class="cls-1" d="M1577.9,18.7v20.36h-14.92c-11.47,0-16.28-6.42-16.28-19.03s4.81-19.03,16.28-19.03c5.33,0,9.31,.58,13.53,1.55l-.7,12.04c-3.73-.49-7.5-.97-11.23-.97-3.49,0-5.68,1.99-5.68,6.42s2.2,6.42,5.68,6.42h2.86v-7.75h10.46Z"/>
    <path class="cls-1" d="M1590.63,13.17v2.66h14.65v8.85h-14.65v2.66h15.17v11.73h-26.5V1.88h26.33V13.17h-14.99Z"/>
    <path class="cls-1" d="M1607.19,1.88h12.2l7.67,17.93V1.88h10.81V39.07h-12.21l-7.67-17.93v17.93h-10.81V1.88Z"/>
    <path class="cls-1" d="M1647.46,39.07V15.16h-8.37V1.88h28.59V15.16h-8.37v23.9h-11.86Z"/>
    <path class="cls-1" d="M1694.01,39.07h-25.11V1.88h11.86V26.23h13.25v12.84Z"/>
    <path class="cls-1" d="M1706.74,13.17v2.66h14.65v8.85h-14.65v2.66h15.17v11.73h-26.5V1.88h26.33V13.17h-14.99Z"/>
    <path class="cls-2" d="M1730.27,39.07V1.88h18.52c8.4,0,11.93,3.19,11.93,9.43,0,3.72-1.39,6.42-4.22,8.15,3.56,1.64,5.68,5.09,5.68,9.16,0,7.08-3.21,10.45-13.39,10.45h-5.79l-1.05-10.84h5.54c2.37,0,3.35-.71,3.35-2.21s-.98-2.21-3.35-2.21h-5.89v15.27h-11.33Zm17.05-23.02c1.88,0,2.75-.71,2.75-1.99s-.87-1.99-2.75-1.99h-5.72v3.98h5.72Z"/>
    <path class="cls-2" d="M1763.22,1.88h11.86V22.56c0,3.05,1.15,4.34,3.49,4.34s3.49-1.28,3.49-4.34V1.88h11.86V24.46c0,10.18-5.58,15.49-15.34,15.49s-15.34-5.31-15.34-15.49V1.88Z"/>
    <path class="cls-2" d="M1807.16,16.8h2.69c2.79,0,4.46-.71,4.46-2.17s-1.67-2.12-4.46-2.12h-1.99l1.05-10.62h2.54c10.95,0,14.89,4.69,14.89,12.75,0,4.96-1.46,8.63-5.16,10.76l6.56,13.68h-14.3l-3.83-11.64h-2.44v11.64h-11.86V1.88h11.86v14.92Z"/>
    <path class="cls-2" d="M1859.29,18.7v20.36h-14.92c-11.47,0-16.28-6.42-16.28-19.03s4.81-19.03,16.28-19.03c5.33,0,9.31,.58,13.53,1.55l-.7,12.04c-3.73-.49-7.5-.97-11.23-.97-3.49,0-5.68,1.99-5.68,6.42s2.2,6.42,5.68,6.42h2.86v-7.75h10.46Z"/>
    <path class="cls-2" d="M1872.01,13.17v2.66h14.65v8.85h-14.65v2.66h15.17v11.73h-26.5V1.88h26.33V13.17h-14.99Z"/>
    <path class="cls-2" d="M1900.43,16.8h2.69c2.79,0,4.46-.71,4.46-2.17s-1.67-2.12-4.46-2.12h-1.99l1.05-10.62h2.54c10.95,0,14.89,4.69,14.89,12.75,0,4.96-1.46,8.63-5.16,10.76l6.56,13.68h-14.3l-3.83-11.64h-2.44v11.64h-11.86V1.88h11.86v14.92Z"/>
  </g>
</svg>