<?xml version="1.0" encoding="UTF-8"?>
<svg id="Layer_1" data-name="Layer 1" xmlns="http://www.w3.org/2000/svg" viewBox="0 0 222.14 194.73">
  <defs>
    <style>
      .cls-1 {
        fill: #fff;
      }

      .cls-2 {
        fill: #bfdb38;
      }

      .cls-3 {
        fill: #053b9f;
      }

      .cls-4 {
        fill: #e0e621;
      }
    </style>
  </defs>
  <g>
    <path class="cls-3" d="M181.82,65.44H41.21c-.76,.47-1.19,.97-1.19,1.5,0,2.49,9.18,4.5,20.51,4.5,1.98,0,3.9-.07,5.71-.18,2.35,2.98,10.3,5.18,19.78,5.18s17.43-2.2,19.78-5.18c1.82,.12,3.73,.18,5.71,.18s3.9-.07,5.71-.18c2.35,2.98,10.3,5.18,19.78,5.18s17.43-2.2,19.78-5.18c1.82,.12,3.73,.18,5.71,.18,11.33,0,20.51-2.01,20.51-4.5,0-.53-.43-1.03-1.19-1.5Z"/>
    <g>
      <path class="cls-1" d="M81.37,67.81h-11.16s1.09,4.96,5.94,4.96c0,0-.41-2.94,5.22-4.96Z"/>
      <path class="cls-1" d="M133.37,67.81h-11.16s1.09,4.96,5.94,4.96c0,0-.41-2.94,5.22-4.96Z"/>
    </g>
  </g>
  <g>
    <path class="cls-3" d="M175.25,76.81h-19.04c-3.05,2.56-10.37,4.37-18.96,4.37s-15.92-1.81-18.96-4.37h-13.06c-3.05,2.56-10.37,4.37-18.96,4.37s-15.92-1.81-18.96-4.37h-19.04c-4.69,0-8.5,3.81-8.5,8.5s3.81,8.5,8.5,8.5h127c4.69,0,8.5-3.81,8.5-8.5s-3.81-8.5-8.5-8.5Z"/>
    <g>
      <path class="cls-3" d="M134.35,4.96L95.63,.32c-24.4-2.92-46.55,14.49-49.47,38.9h0c-.66,5.48,3.26,10.46,8.74,11.12l107.23,12.84c5.48,.66,10.46-3.26,11.12-8.74h0c2.92-24.4-14.49-46.55-38.9-49.47Zm-59.23,12.8c-1.53,.1-2.87-.14-2.99-.55-.13-.41,1.01-.82,2.53-.93,1.53-.1,2.87,.14,2.99,.55,.13,.41-1.01,.82-2.53,.93Zm6.28-4.68c-1.53,.1-2.87-.14-2.99-.55-.13-.41,1.01-.82,2.53-.93,1.53-.1,2.87,.14,2.99,.55,.13,.41-1.01,.82-2.53,.93Zm7.7,6.25c-1.53,.1-2.87-.14-2.99-.55-.13-.41,1.01-.82,2.53-.93,1.53-.1,2.87,.14,2.99,.55,.13,.41-1.01,.82-2.53,.93Zm5.3-4.62c-1.53,.1-2.87-.14-2.99-.55-.13-.41,1.01-.82,2.53-.93,1.53-.1,2.87,.14,2.99,.55,.13,.41-1.01,.82-2.53,.93Z"/>
      <path class="cls-3" d="M42.46,36.81s-10,15,26,18,80.9,8.43,80.9,8.43c0,0-35.9-2.43-43.9-1.43s-27.68,3.86-33.34,1.43-9.76,.43-21.21,0-13.86-9.05-10.65-12.74-6.79-8.69,2.21-13.69Z"/>
    </g>
  </g>
  <g>
    <g>
      <path class="cls-3" d="M84.72,110.81H52.11c-2.94,0-5.32,2.38-5.32,5.32,0,13.08,10.6,23.68,23.68,23.68h62.32c-12.16-14.22-30.68-23.28-48.06-29Z"/>
      <path class="cls-3" d="M152.05,139.23c8.48-1.9,15.24-8.36,17.58-16.66-5.17,5.83-11.82,11.83-17.58,16.66Z"/>
    </g>
    <g>
      <path class="cls-2" d="M18.89,145.5v43.89c-3.54,1.02-5.3,1.53-8.84,2.55C-3.01,189.93,.4,156.32,.4,148.24S-.25,103.87,10.05,104.66c2.58,.2,5.51,2.98,8.01,5.78-.17,10.39-.25,15.61-.41,26.07-2.21-1.26-4.44-2.59-6.65-2.82-2.07-.22-3.37,4.28-3.37,14.6s1.3,14.84,3.37,14.64c.68-.06,1.02-.09,1.69-.16v-17.44c2.48,.07,3.72,.1,6.2,.17Z"/>
      <path class="cls-2" d="M26.43,134.43v5.41c3.47,.25,5.21,.38,8.68,.63v16.86c-3.47,.23-5.21,.34-8.68,.57v5.41c3.59-.38,5.39-.57,8.98-.96v22.27c-6.28,1.81-9.42,2.72-15.7,4.53V109.48c6.24,1.8,9.36,2.7,15.59,4.5v21.45c-3.55-.4-5.33-.6-8.88-1.01Z"/>
      <path class="cls-2" d="M36.24,114.25c2.89,.83,4.34,1.25,7.23,2.09,1.48,10.62,2.96,21.24,4.54,31.85v-30.54c2.56,.74,3.84,1.11,6.4,1.85v59.64c-2.89,.83-4.34,1.25-7.23,2.09-1.58-10.23-3.1-20.47-4.54-30.72v32.03c-2.56,.74-3.84,1.11-6.4,1.85V114.25Z"/>
      <path class="cls-2" d="M60.1,177.5v-36.23c-1.98-.16-2.97-.25-4.96-.41v-21.15c6.77,1.96,10.16,2.93,16.94,4.89v17.66c-1.98-.16-2.97-.25-4.96-.41v33.63c-2.81,.81-4.21,1.22-7.02,2.03Z"/>
      <path class="cls-2" d="M87.67,169.54c-5.95,1.72-8.92,2.58-14.87,4.29v-49.03c2.81,.81,4.21,1.22,7.02,2.03v29.45c3.14-.28,4.71-.42,7.85-.7v13.96Z"/>
      <path class="cls-2" d="M95.21,142.23v2.58c3.47,.25,5.2,.38,8.67,.63v7.4c-3.47,.23-5.2,.34-8.67,.57v2.58c3.59-.38,5.39-.57,8.98-.96v9.75c-6.28,1.81-9.42,2.72-15.7,4.53v-39.96c6.24,1.8,9.36,2.7,15.59,4.5v9.4c-3.55-.4-5.33-.6-8.88-1.01Z"/>
      <path class="cls-2" d="M109.16,163.34v-28.04c4.39,1.27,6.58-.68,10.97-1.94,4.98-1.44,7.06,1.05,7.06,7.09,0,3.6-.83,6.29-2.5,7.93,2.11,1.49,3.37,4.94,3.37,8.94,0,6.95-1.9,9.71-7.93,7.97-1.37-.4-2.06-.59-3.43-.99-.25-3.56-.37-5.33-.62-8.81,1.31,.16,1.97,.24,3.28,.39,1.4,.17,1.98-.38,1.98-1.7s-.58-1.97-1.98-2.05c-1.4-.07-2.09-.11-3.49-.18v12.1c-2.68-.77-4.03-1.49-6.71-.72Zm10.1-17.76c1.11-.08,1.63-.73,1.63-1.85s-.52-1.67-1.63-1.52c-1.35,.18-2.03,.27-3.39,.44v3.16c1.35-.09,2.03-.14,3.39-.23Z"/>
      <path class="cls-2" d="M128.68,130.89c2.81-.81,4.21-1.22,7.02-2.03v22.75c0,3.36,.68,4.84,2.06,4.98,1.38,.14,2.07-1.29,2.07-4.85v-24.07c2.81-.81,4.21-1.22,7.02-2.03v28.75c0,12.97-3.3,18.73-9.09,16.98-5.78-1.75-9.09-8.01-9.09-18.11v-22.38Z"/>
      <path class="cls-2" d="M154.7,144.19c.64-.04,.95-.05,1.59-.09,1.65-.09,2.64-1.19,2.64-3.32s-.99-2.98-2.64-2.78c-.47,.06-.71,.09-1.18,.15,.25-5.99,.37-9,.62-15.07,.6-.17,.9-.26,1.51-.44,6.49-1.87,8.82,4.83,8.82,17.49,0,7.79-.87,13.6-3.06,16.67,1.55,8.46,2.33,12.85,3.88,21.97-3.39-.98-5.08-1.47-8.47-2.44-.91-7.03-1.36-10.46-2.27-17.16-.58-.06-.87-.09-1.45-.16v16.25c-2.81-.81-4.21-1.22-7.02-2.03v-47.83c2.81-.81,4.21-1.22,7.02-2.03v20.82Z"/>
      <path class="cls-2" d="M185.58,146v38.18c-3.54-1.02-5.3-1.53-8.84-2.55-10.63-5.62-9.65-22.92-9.65-33.01,0-10.16-.36-28.97,9.65-33.14,2.74-1.14,5.51-.66,8.01,.46-.17,9.01-.25,13.5-.41,22.45-2.21-.7-4.44-1.33-6.65-1.1-2.07,.22-3.37,3.74-3.37,11.27s1.3,11.03,3.37,11.22c.68,.06,1.02,.09,1.69,.16v-13.78c2.48-.07,3.72-.1,6.2-.17Z"/>
      <path class="cls-2" d="M193.12,134.77v5.29c3.47-.25,5.21-.38,8.68-.63v18.83c-3.47-.23-5.21-.34-8.68-.57v5.29c3.59,.38,5.39,.57,8.98,.96v25c-6.28-1.81-9.42-2.72-15.7-4.53V114.22c6.24-1.8,9.36-2.7,15.59-4.5v24.04c-3.55,.4-5.33,.6-8.88,1.01Z"/>
      <path class="cls-2" d="M209.96,141.04c.64-.04,.95-.05,1.59-.09,1.65-.09,2.64-1.79,2.64-5.18s-.99-4.8-2.64-4.6c-.47,.06-.71,.09-1.18,.15,.25-9.63,.37-14.47,.62-24.19,.6-.17,.9-.26,1.51-.44,10.35,1.27,8.94,21.15,8.82,28.43-.19,11.85-.87,21.01-3.06,25.9,1.32,11.23,2.61,22.47,3.88,33.71-3.39-.98-5.08-1.47-8.47-2.44-.91-11.02-1.36-16.45-2.27-27.15-.58-.06-.87-.09-1.45-.16v26.23c-2.81-.81-4.21-1.22-7.02-2.03V109.45c2.81-.81,4.21-1.22,7.02-2.03v33.62Z"/>
    </g>
    <path class="cls-4" d="M47.79,98.81s70.36,5.03,92.27,44c0,0,51.45-37.71,30.83-44H47.79Z"/>
  </g>
</svg>