<?xml version="1.0" encoding="UTF-8"?>
<svg id="Layer_1" data-name="Layer 1" xmlns="http://www.w3.org/2000/svg" viewBox="0 0 200 200">
  <defs>
    <style>
      .cls-1 {
        fill: #fff;
      }

      .cls-2 {
        fill: #bfdb38;
      }

      .cls-3 {
        fill: #053b9f;
      }

      .cls-4 {
        fill: #e0e621;
      }
    </style>
  </defs>
  <rect class="cls-3" width="200" height="200" rx="20" ry="20"/>
  <g>
    <path class="cls-1" d="M158.59,72.64H40.25c-.64,.4-1,.82-1,1.26,0,2.09,7.73,3.79,17.26,3.79,1.67,0,3.28-.05,4.81-.15,1.98,2.51,8.67,4.36,16.65,4.36s14.67-1.85,16.65-4.36c1.53,.1,3.14,.15,4.81,.15s3.28-.05,4.81-.15c1.98,2.51,8.67,4.36,16.65,4.36s14.67-1.85,16.65-4.36c1.53,.1,3.14,.15,4.81,.15,9.53,0,17.26-1.7,17.26-3.79,0-.44-.37-.87-1-1.26Z"/>
    <g>
      <path class="cls-1" d="M153.06,82.21h-16.02c-2.57,2.15-8.73,3.68-15.96,3.68s-13.39-1.52-15.96-3.68h-10.99c-2.57,2.15-8.73,3.68-15.96,3.68s-13.39-1.52-15.96-3.68h-16.02c-3.95,0-7.15,3.2-7.15,7.15s3.2,7.15,7.15,7.15h106.88c3.95,0,7.15-3.2,7.15-7.15s-3.2-7.15-7.15-7.15Z"/>
      <g>
        <path class="cls-1" d="M118.64,21.74l-32.59-3.9c-20.54-2.46-39.18,12.2-41.64,32.73h0c-.55,4.61,2.74,8.8,7.36,9.36l90.24,10.8c4.61,.55,8.8-2.74,9.36-7.36h0c2.46-20.54-12.2-39.18-32.73-41.64Zm-49.85,10.77c-1.28,.09-2.41-.12-2.52-.46-.11-.34,.85-.69,2.13-.78,1.28-.09,2.41,.12,2.52,.46,.11,.34-.85,.69-2.13,.78Zm5.28-3.94c-1.28,.09-2.41-.12-2.52-.46-.11-.34,.85-.69,2.13-.78,1.28-.09,2.41,.12,2.52,.46,.11,.34-.85,.69-2.13,.78Zm6.48,5.26c-1.28,.09-2.41-.12-2.52-.46-.11-.34,.85-.69,2.13-.78,1.28-.09,2.41,.12,2.52,.46,.11,.34-.85,.69-2.13,.78Zm4.46-3.89c-1.28,.09-2.41-.12-2.52-.46-.11-.34,.85-.69,2.13-.78,1.28-.09,2.41,.12,2.52,.46,.11,.34-.85,.69-2.13,.78Z"/>
        <path class="cls-1" d="M41.31,48.55s-8.42,12.62,21.88,15.15,68.08,7.09,68.08,7.09c0,0-30.21-2.04-36.94-1.2s-23.3,3.25-28.06,1.2-8.21,.36-17.85,0-11.66-7.61-8.97-10.72-5.72-7.31,1.86-11.52Z"/>
      </g>
    </g>
    <g>
      <path class="cls-1" d="M76.87,110.82h-27.44c-2.47,0-4.48,2-4.48,4.48,0,11.01,8.92,19.93,19.93,19.93h52.44c-10.23-11.97-25.82-19.59-40.45-24.41Z"/>
      <path class="cls-1" d="M133.54,134.74c7.14-1.6,12.82-7.03,14.79-14.02-4.35,4.91-9.95,9.96-14.79,14.02Z"/>
    </g>
    <g>
      <path class="cls-2" d="M39.77,144.11v28.62c-2.31,.67-3.46,1-5.77,1.66-8.34-4.95-6.29-20.14-6.29-28.5,0-8.31,.6-27.74,6.29-28.41,1.29-.15,3.6,1.94,5.23,3.77-.11,6.78-.16,10.18-.27,17-1.44-.82-2.9-1.69-4.34-1.84-1.35-.14-2.2,2.79-2.2,9.52s.85,9.68,2.2,9.55c.44-.04,.66-.06,1.1-.1v-11.37c1.62,.04,2.42,.07,4.04,.11Z"/>
      <path class="cls-2" d="M44.68,136.89v3.53c2.26,.16,3.39,.24,5.66,.41v10.99c-2.26,.15-3.4,.22-5.66,.37v3.53c2.34-.25,3.52-.37,5.86-.62v14.52c-4.1,1.18-6.14,1.77-10.24,2.95v-51.95c4.07,1.17,6.1,1.76,10.17,2.94v13.99c-2.32-.26-3.48-.39-5.79-.66Z"/>
      <path class="cls-2" d="M51.08,123.73c1.89,.54,2.83,.82,4.71,1.36,1.19,8.64,1.78,12.79,2.96,20.77v-19.91c1.67,.48,2.51,.72,4.18,1.21v38.88c-1.89,.54-2.83,.82-4.72,1.36-1.19-7.68-1.78-11.69-2.96-20.03v20.88c-1.67,.48-2.51,.72-4.18,1.21v-45.73Z"/>
      <path class="cls-2" d="M66.63,164.97v-23.62c-1.29-.11-1.94-.16-3.23-.27v-13.79c4.42,1.28,6.63,1.91,11.05,3.19v11.51c-1.29-.11-1.94-.16-3.23-.27v21.92c-1.83,.53-2.75,.79-4.58,1.32Z"/>
      <path class="cls-2" d="M84.61,159.78c-3.88,1.12-5.82,1.68-9.7,2.8v-31.97c1.83,.53,2.75,.79,4.58,1.32v19.2c2.05-.18,3.07-.27,5.12-.46v9.1Z"/>
      <path class="cls-2" d="M89.53,141.98v1.68c2.26,.16,3.39,.24,5.66,.41v4.82c-2.26,.15-3.39,.22-5.66,.37v1.68c2.34-.25,3.52-.37,5.86-.62v6.35c-4.1,1.18-6.14,1.77-10.24,2.95v-26.06c4.07,1.17,6.1,1.76,10.17,2.94v6.13c-2.32-.26-3.48-.39-5.79-.66Z"/>
      <path class="cls-2" d="M98.62,155.74v-18.28c2.86,.83,4.29-.44,7.15-1.27,3.25-.94,4.61,.68,4.61,4.62,0,2.35-.54,4.1-1.63,5.17,1.37,.97,2.2,3.22,2.2,5.83,0,4.53-1.24,6.33-5.17,5.19-.89-.26-1.34-.39-2.24-.65-.16-2.32-.24-3.47-.4-5.74,.86,.1,1.29,.15,2.14,.26,.92,.11,1.29-.25,1.29-1.11s-.38-1.28-1.29-1.33c-.91-.05-1.37-.07-2.28-.12v7.89c-1.75-.51-2.63-.97-4.38-.47Zm6.59-11.58c.73-.05,1.06-.48,1.06-1.2s-.34-1.09-1.06-.99c-.88,.12-1.33,.17-2.21,.29v2.06c.88-.06,1.33-.09,2.21-.15Z"/>
      <path class="cls-2" d="M111.34,134.58c1.83-.53,2.75-.79,4.58-1.32v14.83c0,2.19,.44,3.16,1.35,3.25,.9,.09,1.35-.84,1.35-3.16v-15.7c1.83-.53,2.75-.79,4.58-1.32v18.75c0,8.46-2.16,12.21-5.93,11.07-3.77-1.14-5.93-5.22-5.93-11.81v-14.59Z"/>
      <path class="cls-2" d="M128.32,143.25c.41-.02,.62-.04,1.04-.06,1.08-.06,1.72-.77,1.72-2.16s-.65-1.94-1.72-1.81c-.31,.04-.46,.06-.77,.09,.16-3.9,.24-5.87,.4-9.83,.39-.11,.59-.17,.98-.28,4.23-1.22,5.75,3.15,5.75,11.41,0,5.08-.57,8.87-1.99,10.87,1.01,5.52,1.52,8.38,2.53,14.33-2.21-.64-3.31-.96-5.52-1.59-.59-4.58-.89-6.82-1.48-11.19-.38-.04-.57-.06-.94-.1v10.59c-1.83-.53-2.75-.79-4.58-1.32v-31.19c1.83-.53,2.75-.79,4.58-1.32v13.57Z"/>
      <path class="cls-2" d="M148.45,144.43v24.89c-2.31-.67-3.46-1-5.77-1.66-4.43-1.28-6.29-8.46-6.29-21.52s1.86-20.27,6.29-21.61c2.06-.62,3.6-.43,5.23,.3-.11,5.88-.16,8.81-.27,14.64-1.44-.46-2.9-.87-4.34-.72-1.35,.14-2.2,2.44-2.2,7.35s.85,7.2,2.2,7.32c.44,.04,.66,.06,1.1,.1v-8.99c1.62-.04,2.42-.07,4.04-.11Z"/>
      <path class="cls-2" d="M153.37,137.11v3.45c2.26-.16,3.39-.24,5.66-.41v12.27c-2.26-.15-3.39-.22-5.66-.37v3.45c2.34,.25,3.52,.37,5.86,.62v16.3c-4.09-1.18-6.14-1.77-10.24-2.95v-45.76c4.07-1.17,6.1-1.76,10.17-2.94v15.68c-2.32,.26-3.48,.39-5.79,.66Z"/>
      <path class="cls-2" d="M164.34,141.2c.41-.02,.62-.04,1.04-.06,1.08-.06,1.72-1.17,1.72-3.38s-.65-3.13-1.72-3c-.31,.04-.46,.06-.77,.09,.16-6.28,.24-9.44,.4-15.77,.39-.11,.59-.17,.98-.28,4.23-1.22,5.75,5.77,5.75,18.54,0,7.85-.57,13.7-1.99,16.89,1.01,8.58,1.52,12.97,2.53,21.98-2.21-.64-3.31-.96-5.52-1.59-.59-7.19-.89-10.73-1.48-17.7-.38-.04-.57-.06-.94-.1v17.1c-1.83-.53-2.75-.79-4.58-1.32v-51.98c1.83-.53,2.75-.79,4.58-1.32v21.92Z"/>
    </g>
    <path class="cls-4" d="M45.79,100.72s59.22,4.23,77.65,37.03c0,0,43.3-31.74,25.95-37.03H45.79Z"/>
  </g>
</svg>