<?xml version="1.0" encoding="UTF-8"?>
<svg id="Layer_1" data-name="Layer 1" xmlns="http://www.w3.org/2000/svg" viewBox="0 0 348.69 160.98">
  <defs>
    <style>
      .cls-1 {
        fill: #fff;
      }

      .cls-2 {
        fill: #053b9f;
      }

      .cls-3 {
        fill: #e0e621;
      }
    </style>
  </defs>
  <g>
    <g>
      <path class="cls-2" d="M143.22,67.5H2.61c-.76,.47-1.19,.97-1.19,1.5,0,2.49,9.18,4.5,20.51,4.5,1.98,0,3.9-.07,5.71-.18,2.35,2.98,10.3,5.18,19.78,5.18s17.43-2.2,19.78-5.18c1.82,.12,3.73,.18,5.71,.18s3.9-.07,5.71-.18c2.35,2.98,10.3,5.18,19.78,5.18s17.43-2.2,19.78-5.18c1.82,.12,3.73,.18,5.71,.18,11.33,0,20.51-2.01,20.51-4.5,0-.53-.43-1.03-1.19-1.5Z"/>
      <g>
        <path class="cls-1" d="M42.77,69.86h-11.16s1.09,4.96,5.94,4.96c0,0-.41-2.94,5.22-4.96Z"/>
        <path class="cls-1" d="M94.77,69.86h-11.16s1.09,4.96,5.94,4.96c0,0-.41-2.94,5.22-4.96Z"/>
      </g>
    </g>
    <g>
      <path class="cls-2" d="M136.65,78.86h-19.04c-3.05,2.56-10.37,4.37-18.96,4.37s-15.92-1.81-18.96-4.37h-13.06c-3.05,2.56-10.37,4.37-18.96,4.37s-15.92-1.81-18.96-4.37H9.65c-4.69,0-8.5,3.81-8.5,8.5s3.81,8.5,8.5,8.5h127c4.69,0,8.5-3.81,8.5-8.5s-3.81-8.5-8.5-8.5Z"/>
      <g>
        <path class="cls-2" d="M95.76,7.01L57.03,2.37C32.63-.55,10.48,16.86,7.56,41.27h0c-.66,5.48,3.26,10.46,8.74,11.12l107.23,12.84c5.48,.66,10.46-3.26,11.12-8.74h0c2.92-24.4-14.49-46.55-38.9-49.47Zm-59.23,12.8c-1.53,.1-2.87-.14-2.99-.55-.13-.41,1.01-.82,2.53-.93,1.53-.1,2.87,.14,2.99,.55,.13,.41-1.01,.82-2.53,.93Zm6.28-4.68c-1.53,.1-2.87-.14-2.99-.55-.13-.41,1.01-.82,2.53-.93,1.53-.1,2.87,.14,2.99,.55,.13,.41-1.01,.82-2.53,.93Zm7.7,6.25c-1.53,.1-2.87-.14-2.99-.55-.13-.41,1.01-.82,2.53-.93,1.53-.1,2.87,.14,2.99,.55,.13,.41-1.01,.82-2.53,.93Zm5.3-4.62c-1.53,.1-2.87-.14-2.99-.55-.13-.41,1.01-.82,2.53-.93,1.53-.1,2.87,.14,2.99,.55,.13,.41-1.01,.82-2.53,.93Z"/>
        <path class="cls-2" d="M3.86,38.86s-10,15,26,18,80.9,8.43,80.9,8.43c0,0-35.9-2.43-43.9-1.43s-27.68,3.86-33.34,1.43c-5.66-2.43-9.76,.43-21.21,0S-1.55,56.25,1.65,52.56c3.21-3.69-6.79-8.69,2.21-13.69Z"/>
      </g>
    </g>
    <g>
      <path class="cls-2" d="M46.12,112.86H13.51c-2.94,0-5.32,2.38-5.32,5.32,0,13.08,10.6,23.68,23.68,23.68h62.32c-12.16-14.22-30.68-23.28-48.06-29Z"/>
      <path class="cls-2" d="M113.45,141.28c8.48-1.9,15.24-8.36,17.58-16.66-5.17,5.83-11.82,11.83-17.58,16.66Z"/>
    </g>
    <path class="cls-3" d="M9.19,100.86s70.36,5.03,92.27,44c0,0,51.45-37.71,30.83-44H9.19Z"/>
  </g>
  <g>
    <g>
      <path class="cls-2" d="M186.28,62.12c0,14.4,.06,28.8,.17,43.21-4.55,1.37-6.82,2.05-11.37,3.42-15.25,2.19-12.41-37.15-12.41-43.81s-1.52-46.89,12.43-43.8c3.84,.85,7.1,3.44,10.29,6.41-.3,10.22-.44,15.36-.68,25.69-2.82-1.29-5.67-2.67-8.49-2.95-2.64-.27-4.31,4.24-4.32,14.65,0,10.41,1.67,14.92,4.31,14.66,.87-.09,1.3-.13,2.16-.22-.01-6.97-.01-10.45,0-17.42,3.16,.07,4.75,.1,7.91,.17Z"/>
      <path class="cls-2" d="M195.95,51.42c-.01,2.09-.02,3.14-.03,5.23,4.43,.3,6.65,.44,11.08,.74-.04,6.36-.04,9.54-.02,15.9-4.43,.33-6.65,.49-11.08,.81,0,2.09,.01,3.14,.02,5.23,4.59-.53,6.89-.8,11.48-1.33,.06,8.39,.12,12.57,.29,20.92-8.08,2.43-12.11,3.64-20.19,6.07-.21-26.09-.2-52.17,.02-78.26,8.03,2.3,12.04,3.46,20.07,5.76-.17,8.04-.24,12.07-.31,20.15-4.54-.49-6.81-.74-11.35-1.23Z"/>
      <path class="cls-2" d="M208.82,32.85c3.72,1.07,5.58,1.6,9.31,2.67,1.56,9.72,3.32,19.44,5.34,29.08,.03-11.02,.14-16.5,.51-27.4,3.3,.95,4.95,1.42,8.24,2.37-.59,17.37-.61,34.64-.07,52.01-3.72,1.12-5.58,1.68-9.3,2.8-2.39-9.11-4.46-18.37-6.25-27.61-.01,9.79,.13,19.59,.4,29.37-3.29,.99-4.94,1.49-8.23,2.48-.38-21.93-.36-43.83,.05-65.76Z"/>
      <path class="cls-2" d="M239.45,89.38c-.53-10.2-.71-20.5-.51-30.72-2.53-.2-3.8-.29-6.33-.49,.1-7.37,.21-11.04,.53-18.34,8.72,2.5,13.08,3.75,21.8,6.26-.42,5.45-.56,8.2-.7,13.75-2.53-.2-3.8-.29-6.33-.49-.23,10.95-.09,16.52,.56,27.31-3.61,1.09-5.42,1.63-9.03,2.72Z"/>
      <path class="cls-2" d="M274.92,78.71c-7.65,2.3-11.48,3.45-19.13,5.75-.94-12.68-.91-25.43,.09-38.1,3.62,1.04,5.42,1.56,9.04,2.59-.84,8.44-1.03,12.87-.79,21.52,4.01-.39,6.02-.59,10.03-.98,.14,3.74,.3,5.59,.76,9.22Z"/>
      <path class="cls-2" d="M283.89,60.98c-.05,.61-.07,.91-.1,1.53,4.43,.3,6.65,.44,11.08,.74-.12,1.42-.13,2.16-.05,3.59-4.43,.33-6.65,.49-11.08,.81,.02,.61,.04,.92,.08,1.53,4.59-.53,6.89-.8,11.48-1.33,.18,1.84,.36,2.74,.86,4.46-8.07,2.43-12.11,3.64-20.19,6.07-1.34-10.26-1.32-15.99,.11-26.23,8.03,2.3,12.04,3.46,20.07,5.76-.51,1.66-.7,2.52-.92,4.29-4.54-.49-6.81-.74-11.35-1.23Z"/>
    </g>
    <g>
      <path class="cls-3" d="M215.29,122.66c1.48-5.38,1.43-8.73-.22-14.04,5.19-1.49,7.78-2.24,12.97-3.73,5.89-1.69,8.72-.22,9.03,4.18,.19,2.63-.74,4.66-2.68,5.85,2.49,1.06,3.98,3.69,3.83,6.65-.25,5.14-2.87,6.86-9.99,4.81-1.62-.47-2.43-.7-4.05-1.16,.11-2.25,.11-3.38-.01-5.62,1.54,.18,2.31,.28,3.85,.46,1.65,.2,2.36-.15,2.39-1.06,.04-.92-.64-1.38-2.29-1.47-1.64-.08-2.46-.13-4.09-.21-.08,3.13-.26,4.66-.83,7.62-3.17-.91-4.75-1.37-7.92-2.28Zm12.66-9.59c1.31-.09,1.9-.56,1.85-1.32-.05-.76-.7-1.1-2.01-.93-1.59,.21-2.39,.31-3.98,.52,.08,.8,.12,1.2,.17,2.01,1.59-.11,2.39-.16,3.97-.27Z"/>
      <path class="cls-3" d="M238.15,101.98c3.32-.95,4.98-1.43,8.31-2.39,.7,7,.9,10.61,.86,17.83-.01,2.67,.74,3.86,2.36,4.02,1.62,.16,2.47-.97,2.49-3.86,.04-7.84-.15-11.76-.81-19.39,3.32-.95,4.98-1.43,8.3-2.39,.67,9.5,.84,14.39,.73,24.08-.12,10.93-4.55,15.31-11.38,13.26-6.83-2.06-10.09-7-9.94-14.57,.13-6.71-.08-10.12-.91-16.59Z"/>
      <path class="cls-3" d="M269.56,111.14c.75-.04,1.12-.06,1.87-.11,1.94-.11,3.09-1.09,3.06-2.98-.03-1.88-1.22-2.59-3.16-2.35-.55,.07-.83,.1-1.38,.17,.16-5.21,.2-7.83,.21-13.08,.71-.2,1.07-.31,1.78-.51,7.67-2.2,10.75,3.59,10.92,15.02,.1,7.04-.94,12.32-3.54,15.03,1.76,7.61,2.57,11.6,4.14,19.91-4-1.15-6-1.72-10-2.87-.81-6.21-1.25-9.24-2.22-15.13-.68-.07-1.02-.11-1.7-.18-.1,5.65-.2,8.46-.47,14.05-3.32-.95-4.98-1.43-8.29-2.38,.83-13.39,.78-26.82-.15-40.2,3.32-.95,4.98-1.43,8.31-2.39,.39,7.14,.53,10.75,.63,18Z"/>
      <path class="cls-3" d="M305.81,112.46c.04,12.04-.06,24.08-.28,36.12-4.18-1.2-6.26-1.8-10.44-3-11.18-4.7-10.92-20.54-10.95-30.62-.03-10.13,.06-26.81,10.82-30.73,3.46-1.26,6.55-1.03,9.54-.14-.02,8.49-.06,12.73-.19,21.19-2.6-.62-5.23-1.15-7.83-.88-2.42,.26-3.89,3.54-3.88,10.51,.02,6.97,1.5,10.24,3.92,10.46,.79,.07,1.19,.11,1.99,.18,.03-5.15,.04-7.74,.02-12.9,2.91-.08,4.36-.12,7.27-.2Z"/>
      <path class="cls-3" d="M314.61,101.63c.01,2.03,.02,3.05,.03,5.08,4.07-.29,6.11-.44,10.18-.73,.02,7.33,.02,11.01,.01,18.34-4.07-.26-6.11-.4-10.18-.66,0,2.03,0,3.05-.02,5.08,4.22,.45,6.33,.67,10.55,1.12-.03,9.74-.06,14.61-.14,24.33-7.41-2.13-11.12-3.19-18.53-5.32,.32-22.17,.29-44.32-.07-66.5,7.38-2.12,11.07-3.18,18.44-5.3,.09,9.34,.12,14.02,.16,23.38-4.17,.47-6.26,.71-10.43,1.18Z"/>
      <path class="cls-3" d="M334.39,107.45c.75-.04,1.12-.06,1.87-.11,1.94-.11,3.1-1.8,3.1-5.16,0-3.35-1.17-4.73-3.11-4.49-.55,.07-.83,.1-1.38,.17,.27-9.5,.4-14.26,.64-23.85,.71-.2,1.07-.31,1.78-.51,11.6-1.4,10.56,21.57,10.44,27.92-.23,11.79-1.01,20.98-3.58,25.82,1.54,11.24,3.06,22.48,4.55,33.73-4-1.15-6-1.72-10-2.87-1.04-10.95-1.56-16.33-2.61-26.9-.68-.07-1.02-.11-1.7-.18-.02,10.33-.04,15.5-.09,25.82-3.32-.95-4.97-1.43-8.29-2.38,.18-25.91,.16-51.81-.04-77.71,3.32-.95,4.98-1.43,8.31-2.39,.05,11.03,.09,22.05,.11,33.08Z"/>
    </g>
  </g>
</svg>